<svg width="40" height="40" viewBox="0 0 40 40" fill="none" xmlns="http://www.w3.org/2000/svg">
<path d="M21.25 22.5C24.0114 22.5 26.25 20.2614 26.25 17.5C26.25 14.7386 24.0114 12.5 21.25 12.5C18.4886 12.5 16.25 14.7386 16.25 17.5C16.25 20.2614 18.4886 22.5 21.25 22.5Z" stroke="white" stroke-width="2" stroke-linecap="round" stroke-linejoin="round"/>
<path d="M5 16.875H8.75" stroke="white" stroke-width="2" stroke-linecap="round" stroke-linejoin="round"/>
<path d="M5 10.625H8.75" stroke="white" stroke-width="2" stroke-linecap="round" stroke-linejoin="round"/>
<path d="M5 23.125H8.75" stroke="white" stroke-width="2" stroke-linecap="round" stroke-linejoin="round"/>
<path d="M5 29.375H8.75" stroke="white" stroke-width="2" stroke-linecap="round" stroke-linejoin="round"/>
<path d="M13.75 26.2497C14.6234 25.0854 15.7558 24.1405 17.0576 23.4897C18.3594 22.8389 19.7948 22.5 21.2502 22.5C22.7056 22.5 24.1411 22.8387 25.4429 23.4895C26.7447 24.1403 27.8772 25.0851 28.7506 26.2493" stroke="white" stroke-width="2" stroke-linecap="round" stroke-linejoin="round"/>
<path d="M33.75 33.75V6.25C33.75 5.55964 33.1904 5 32.5 5L10 5C9.30964 5 8.75 5.55964 8.75 6.25V33.75C8.75 34.4404 9.30964 35 10 35H32.5C33.1904 35 33.75 34.4404 33.75 33.75Z" stroke="white" stroke-width="2" stroke-linecap="round" stroke-linejoin="round"/>
</svg>
