<svg width="18" height="18" viewBox="0 0 18 18" fill="none" xmlns="http://www.w3.org/2000/svg">
<g clip-path="url(#clip0_171_10021)">
<path d="M16.5 1.68788H14.0625V0.562875C14.0626 0.413691 14.0034 0.270577 13.898 0.165018C13.7926 0.0594582 13.6496 9.95897e-05 13.5004 1.33562e-07C13.3512 -9.93226e-05 13.2081 0.0590685 13.1025 0.164487C12.997 0.269906 12.9376 0.412941 12.9375 0.562125V1.68788H9.5625V0.562875C9.56255 0.489007 9.54805 0.415852 9.51983 0.347587C9.4916 0.279323 9.45021 0.217286 9.39801 0.165018C9.34581 0.11275 9.28383 0.0712752 9.21561 0.0429614C9.14738 0.0146476 9.07424 4.93709e-05 9.00037 1.2518e-07C8.85119 -9.9331e-05 8.70808 0.0590685 8.60252 0.164487C8.49696 0.269906 8.4376 0.412941 8.4375 0.562125V1.68788H5.0625V0.562875C5.06255 0.489007 5.04805 0.415852 5.01983 0.347587C4.9916 0.279323 4.95021 0.217286 4.89801 0.165018C4.84581 0.11275 4.78383 0.0712752 4.71561 0.0429614C4.64738 0.0146476 4.57424 4.93709e-05 4.50038 1.2518e-07C4.35119 -9.9331e-05 4.20808 0.0590685 4.10252 0.164487C3.99696 0.269906 3.9376 0.412941 3.9375 0.562125V1.68788H1.5C1.10231 1.68788 0.720888 1.84581 0.439605 2.12695C0.158322 2.40809 0.000198847 2.78943 0 3.18713V16.4996C0 16.8975 0.158035 17.279 0.43934 17.5603C0.720644 17.8416 1.10218 17.9996 1.5 17.9996H16.5C16.8978 17.9996 17.2794 17.8416 17.5607 17.5603C17.842 17.279 18 16.8975 18 16.4996V3.18713C17.9998 2.78943 17.8417 2.40809 17.5604 2.12695C17.2791 1.84581 16.8977 1.68788 16.5 1.68788ZM16.875 16.5004C16.875 16.5997 16.8356 16.695 16.7654 16.7653C16.6953 16.8356 16.6001 16.8752 16.5007 16.8754H1.5C1.40054 16.8754 1.30516 16.8359 1.23483 16.7655C1.16451 16.6952 1.125 16.5998 1.125 16.5004V3.18788C1.1252 3.08855 1.1648 2.99336 1.2351 2.92319C1.3054 2.85303 1.40067 2.81363 1.5 2.81363H3.9375V3.93863C3.9374 4.08781 3.99657 4.23092 4.10199 4.33648C4.20741 4.44204 4.35044 4.5014 4.49962 4.5015C4.64881 4.5016 4.79192 4.44243 4.89748 4.33701C5.00304 4.23159 5.0624 4.08856 5.0625 3.93938V2.81363H8.4375V3.93863C8.4374 4.08781 8.49657 4.23092 8.60199 4.33648C8.70741 4.44204 8.85044 4.5014 8.99963 4.5015C9.14881 4.5016 9.29192 4.44243 9.39748 4.33701C9.50304 4.23159 9.5624 4.08856 9.5625 3.93938V2.81363H12.9375V3.93863C12.9374 4.08781 12.9966 4.23092 13.102 4.33648C13.2074 4.44204 13.3504 4.5014 13.4996 4.5015C13.6488 4.5016 13.7919 4.44243 13.8975 4.33701C14.003 4.23159 14.0624 4.08856 14.0625 3.93938V2.81363H16.5C16.5992 2.81382 16.6943 2.85332 16.7644 2.92346C16.8346 2.9936 16.8741 3.08868 16.8743 3.18788L16.875 16.5004Z" fill="#1BC03F"/>
<path d="M3.9375 6.75H6.1875V8.4375H3.9375V6.75ZM3.9375 9.5625H6.1875V11.25H3.9375V9.5625ZM3.9375 12.375H6.1875V14.0625H3.9375V12.375ZM7.875 12.375H10.125V14.0625H7.875V12.375ZM7.875 9.5625H10.125V11.25H7.875V9.5625ZM7.875 6.75H10.125V8.4375H7.875V6.75ZM11.8125 12.375H14.0625V14.0625H11.8125V12.375ZM11.8125 9.5625H14.0625V11.25H11.8125V9.5625ZM11.8125 6.75H14.0625V8.4375H11.8125V6.75Z" fill="#1BC03F"/>
</g>
<defs>
<clipPath id="clip0_171_10021">
<rect width="18" height="18" fill="white"/>
</clipPath>
</defs>
</svg>
