<svg width="44" height="46" viewBox="0 0 44 46" fill="none" xmlns="http://www.w3.org/2000/svg">
<g filter="url(#filter0_d_147_380)">
<path d="M38.25 17.5H37V12.5H34.5V17.5H32V12.5H29.5V17.5H28.25C27.9185 17.5 27.6005 17.6317 27.3661 17.8661C27.1317 18.1005 27 18.4185 27 18.75V23.75C27.0019 25.1901 27.5002 26.5855 28.411 27.701C29.3218 28.8165 30.5894 29.5839 32 29.8738V33.75C32 34.0815 31.8683 34.3995 31.6339 34.6339C31.3995 34.8683 31.0815 35 30.75 35H8.25C7.91848 35 7.60054 34.8683 7.36612 34.6339C7.1317 34.3995 7 34.0815 7 33.75C7 33.4185 7.1317 33.1005 7.36612 32.8661C7.60054 32.6317 7.91848 32.5 8.25 32.5H14.5C15.4946 32.5 16.4484 32.1049 17.1517 31.4017C17.8549 30.6984 18.25 29.7446 18.25 28.75C18.25 27.7554 17.8549 26.8016 17.1517 26.0983C16.4484 25.3951 15.4946 25 14.5 25H8.25C7.91848 25 7.60054 24.8683 7.36612 24.6339C7.1317 24.3995 7 24.0815 7 23.75C7 23.4185 7.1317 23.1005 7.36612 22.8661C7.60054 22.6317 7.91848 22.5 8.25 22.5H14.5C15.4943 22.499 16.4475 22.1036 17.1506 21.4006C17.8536 20.6975 18.249 19.7443 18.25 18.75V13.75H19.5C20.8256 13.7483 22.0964 13.221 23.0337 12.2837C23.971 11.3464 24.4983 10.0756 24.5 8.75V5H20.75C19.4702 5.00189 18.2403 5.49705 17.3162 6.3825C16.6687 5.20753 15.718 4.22763 14.5632 3.5448C13.4084 2.86197 12.0916 2.50118 10.75 2.5H7V6.25C7.00232 8.23841 7.79324 10.1447 9.19926 11.5507C10.6053 12.9568 12.5116 13.7477 14.5 13.75H15.75V18.75C15.75 19.0815 15.6183 19.3995 15.3839 19.6339C15.1495 19.8683 14.8315 20 14.5 20H8.25C7.25544 20 6.30161 20.3951 5.59835 21.0983C4.89509 21.8016 4.5 22.7554 4.5 23.75C4.5 24.7446 4.89509 25.6984 5.59835 26.4017C6.30161 27.1049 7.25544 27.5 8.25 27.5H14.5C14.8315 27.5 15.1495 27.6317 15.3839 27.8661C15.6183 28.1005 15.75 28.4185 15.75 28.75C15.75 29.0815 15.6183 29.3995 15.3839 29.6339C15.1495 29.8683 14.8315 30 14.5 30H8.25C7.25544 30 6.30161 30.3951 5.59835 31.0983C4.89509 31.8016 4.5 32.7554 4.5 33.75C4.5 34.7446 4.89509 35.6984 5.59835 36.4016C6.30161 37.1049 7.25544 37.5 8.25 37.5H30.75C31.7443 37.499 32.6975 37.1036 33.4006 36.4006C34.1036 35.6975 34.499 34.7443 34.5 33.75V29.8738C35.9106 29.5839 37.1782 28.8165 38.089 27.701C38.9998 26.5855 39.4981 25.1901 39.5 23.75V18.75C39.5 18.4185 39.3683 18.1005 39.1339 17.8661C38.8995 17.6317 38.5815 17.5 38.25 17.5ZM18.25 10C18.2507 9.33716 18.5143 8.70166 18.983 8.23296C19.4517 7.76427 20.0872 7.50066 20.75 7.5H22V8.75C21.9993 9.41284 21.7357 10.0483 21.267 10.517C20.7983 10.9857 20.1628 11.2493 19.5 11.25H18.25V10ZM14.5 11.25C13.1744 11.2483 11.9036 10.721 10.9663 9.78371C10.029 8.84638 9.50165 7.57557 9.5 6.25V5H10.75C12.0756 5.00165 13.3464 5.52897 14.2837 6.46629C15.221 7.40362 15.7483 8.67443 15.75 10V11.25H14.5ZM37 23.75C37 24.7446 36.6049 25.6984 35.9017 26.4017C35.1984 27.1049 34.2446 27.5 33.25 27.5C32.2554 27.5 31.3016 27.1049 30.5983 26.4017C29.8951 25.6984 29.5 24.7446 29.5 23.75V20H37V23.75Z" fill="white"/>
</g>
<defs>
<filter id="filter0_d_147_380" x="-2" y="0" width="48" height="48" filterUnits="userSpaceOnUse" color-interpolation-filters="sRGB">
<feFlood flood-opacity="0" result="BackgroundImageFix"/>
<feColorMatrix in="SourceAlpha" type="matrix" values="0 0 0 0 0 0 0 0 0 0 0 0 0 0 0 0 0 0 127 0" result="hardAlpha"/>
<feOffset dy="4"/>
<feGaussianBlur stdDeviation="2"/>
<feComposite in2="hardAlpha" operator="out"/>
<feColorMatrix type="matrix" values="0 0 0 0 0 0 0 0 0 0 0 0 0 0 0 0 0 0 0.25 0"/>
<feBlend mode="normal" in2="BackgroundImageFix" result="effect1_dropShadow_147_380"/>
<feBlend mode="normal" in="SourceGraphic" in2="effect1_dropShadow_147_380" result="shape"/>
</filter>
</defs>
</svg>
