<svg width="40" height="40" viewBox="0 0 40 40" fill="none" xmlns="http://www.w3.org/2000/svg">
<path d="M36.25 17.5H35V12.5H32.5V17.5H30V12.5H27.5V17.5H26.25C25.9185 17.5 25.6005 17.6317 25.3661 17.8661C25.1317 18.1005 25 18.4185 25 18.75V23.75C25.0019 25.1901 25.5002 26.5855 26.411 27.701C27.3218 28.8165 28.5894 29.5839 30 29.8738V33.75C30 34.0815 29.8683 34.3995 29.6339 34.6339C29.3995 34.8683 29.0815 35 28.75 35H6.25C5.91848 35 5.60054 34.8683 5.36612 34.6339C5.1317 34.3995 5 34.0815 5 33.75C5 33.4185 5.1317 33.1005 5.36612 32.8661C5.60054 32.6317 5.91848 32.5 6.25 32.5H12.5C13.4946 32.5 14.4484 32.1049 15.1517 31.4017C15.8549 30.6984 16.25 29.7446 16.25 28.75C16.25 27.7554 15.8549 26.8016 15.1517 26.0983C14.4484 25.3951 13.4946 25 12.5 25H6.25C5.91848 25 5.60054 24.8683 5.36612 24.6339C5.1317 24.3995 5 24.0815 5 23.75C5 23.4185 5.1317 23.1005 5.36612 22.8661C5.60054 22.6317 5.91848 22.5 6.25 22.5H12.5C13.4943 22.499 14.4475 22.1036 15.1506 21.4006C15.8536 20.6975 16.249 19.7443 16.25 18.75V13.75H17.5C18.8256 13.7483 20.0964 13.221 21.0337 12.2837C21.971 11.3464 22.4983 10.0756 22.5 8.75V5H18.75C17.4702 5.00189 16.2403 5.49705 15.3163 6.3825C14.6687 5.20753 13.718 4.22763 12.5632 3.5448C11.4084 2.86197 10.0916 2.50118 8.75 2.5H5V6.25C5.00232 8.23841 5.79324 10.1447 7.19926 11.5507C8.60528 12.9568 10.5116 13.7477 12.5 13.75H13.75V18.75C13.75 19.0815 13.6183 19.3995 13.3839 19.6339C13.1495 19.8683 12.8315 20 12.5 20H6.25C5.25544 20 4.30161 20.3951 3.59835 21.0983C2.89509 21.8016 2.5 22.7554 2.5 23.75C2.5 24.7446 2.89509 25.6984 3.59835 26.4017C4.30161 27.1049 5.25544 27.5 6.25 27.5H12.5C12.8315 27.5 13.1495 27.6317 13.3839 27.8661C13.6183 28.1005 13.75 28.4185 13.75 28.75C13.75 29.0815 13.6183 29.3995 13.3839 29.6339C13.1495 29.8683 12.8315 30 12.5 30H6.25C5.25544 30 4.30161 30.3951 3.59835 31.0983C2.89509 31.8016 2.5 32.7554 2.5 33.75C2.5 34.7446 2.89509 35.6984 3.59835 36.4017C4.30161 37.1049 5.25544 37.5 6.25 37.5H28.75C29.7443 37.499 30.6975 37.1036 31.4006 36.4006C32.1036 35.6975 32.499 34.7443 32.5 33.75V29.8738C33.9106 29.5839 35.1782 28.8165 36.089 27.701C36.9998 26.5855 37.4981 25.1901 37.5 23.75V18.75C37.5 18.4185 37.3683 18.1005 37.1339 17.8661C36.8995 17.6317 36.5815 17.5 36.25 17.5ZM16.25 10C16.2507 9.33716 16.5143 8.70166 16.983 8.23296C17.4517 7.76427 18.0872 7.50066 18.75 7.5H20V8.75C19.9993 9.41284 19.7357 10.0483 19.267 10.517C18.7983 10.9857 18.1628 11.2493 17.5 11.25H16.25V10ZM12.5 11.25C11.1744 11.2483 9.90362 10.721 8.96629 9.78371C8.02897 8.84638 7.50165 7.57557 7.5 6.25V5H8.75C10.0756 5.00165 11.3464 5.52897 12.2837 6.46629C13.221 7.40362 13.7483 8.67443 13.75 10V11.25H12.5ZM35 23.75C35 24.7446 34.6049 25.6984 33.9017 26.4017C33.1984 27.1049 32.2446 27.5 31.25 27.5C30.2554 27.5 29.3016 27.1049 28.5983 26.4017C27.8951 25.6984 27.5 24.7446 27.5 23.75V20H35V23.75Z" fill="#1BC03F"/>
</svg>
