<svg width="40" height="40" viewBox="0 0 40 40" fill="none" xmlns="http://www.w3.org/2000/svg">
<path d="M20.0335 29.9997C22.8113 29.9997 25.1579 29.0219 27.0735 27.0663C28.9913 25.1108 29.9668 22.7475 30.0002 19.9763V9.99967H20.0235C17.2513 10.033 14.8879 11.0086 12.9335 12.9263C10.9779 14.8419 10.0002 17.1886 10.0002 19.9663C10.0002 22.7441 10.9757 25.1108 12.9268 27.0663C14.8757 29.0219 17.2441 29.9997 20.0318 29.9997M18.3802 26.0163L24.7768 20.288C24.9857 20.1025 25.0452 19.8836 24.9552 19.6313C24.8663 19.3791 24.6763 19.2252 24.3852 19.1697L19.3785 18.7147L22.4168 14.558C22.4791 14.4613 22.5068 14.3558 22.5002 14.2413C22.4913 14.1269 22.4524 14.0252 22.3835 13.9363C22.2724 13.8186 22.1479 13.7652 22.0102 13.7763C21.8724 13.7875 21.7457 13.8397 21.6302 13.933L15.2968 19.638C15.0879 19.8236 15.0235 20.048 15.1035 20.3113C15.1813 20.5736 15.3657 20.7325 15.6568 20.788L20.6635 21.243L17.6468 25.3997C17.5857 25.4963 17.5602 25.6019 17.5702 25.7163C17.5813 25.8308 17.6263 25.9325 17.7052 26.0213C17.7841 26.1113 17.8874 26.1563 18.0152 26.1563C18.1429 26.1563 18.2646 26.1097 18.3802 26.0163ZM20.0318 31.6663C18.5618 31.6663 17.1768 31.4125 15.8768 30.9047C14.5768 30.398 13.4102 29.7002 12.3768 28.8113L9.76683 31.423C9.6835 31.5041 9.58961 31.5652 9.48516 31.6063C9.38183 31.6463 9.27461 31.6663 9.1635 31.6663C8.92905 31.6663 8.73183 31.5858 8.57183 31.4247C8.41294 31.2647 8.3335 31.0658 8.3335 30.828C8.3335 30.7169 8.35405 30.6102 8.39516 30.508C8.43516 30.4058 8.49627 30.3141 8.5785 30.233L11.1885 27.6213C10.2996 26.5891 9.60183 25.423 9.09516 24.123C8.58738 22.823 8.3335 21.438 8.3335 19.968C8.3335 16.7202 9.47016 13.9691 11.7435 11.7147C14.0168 9.46023 16.7779 8.33301 20.0268 8.33301H31.6668V19.9713C31.6668 23.2213 30.5396 25.9825 28.2852 28.2547C26.0307 30.5291 23.2802 31.6663 20.0335 31.6663" fill="#1BC03F"/>
</svg>
