<svg width="18" height="18" viewBox="0 0 18 18" fill="none" xmlns="http://www.w3.org/2000/svg">
<path d="M4.875 5.625C4.875 5.82391 4.95402 6.01468 5.09467 6.15533C5.23532 6.29598 5.42609 6.375 5.625 6.375C5.82391 6.375 6.01468 6.29598 6.15533 6.15533C6.29598 6.01468 6.375 5.82391 6.375 5.625C6.375 5.42609 6.29598 5.23532 6.15533 5.09467C6.01468 4.95402 5.82391 4.875 5.625 4.875C5.42609 4.875 5.23532 4.95402 5.09467 5.09467C4.95402 5.23532 4.875 5.42609 4.875 5.625Z" stroke="#1BC03F" stroke-width="1.4" stroke-linecap="round" stroke-linejoin="round"/>
<path d="M2.25 4.5V8.379C2.25008 8.77679 2.40818 9.15826 2.6895 9.4395L8.472 15.222C8.81096 15.5609 9.27067 15.7513 9.75 15.7513C10.2293 15.7513 10.689 15.5609 11.028 15.222L15.222 11.028C15.5609 10.689 15.7513 10.2293 15.7513 9.75C15.7513 9.27067 15.5609 8.81096 15.222 8.472L9.4395 2.6895C9.15826 2.40818 8.77679 2.25008 8.379 2.25H4.5C3.90326 2.25 3.33097 2.48705 2.90901 2.90901C2.48705 3.33097 2.25 3.90326 2.25 4.5Z" stroke="#1BC03F" stroke-width="1.4" stroke-linecap="round" stroke-linejoin="round"/>
</svg>
