<svg width="40" height="40" viewBox="0 0 40 40" fill="none" xmlns="http://www.w3.org/2000/svg">
<path d="M6.02516 35.0003C5.28516 35.0003 4.65183 34.7364 4.12516 34.2087C3.59738 33.682 3.3335 33.0487 3.3335 32.3087V11.0253C3.3335 10.2853 3.59738 9.65199 4.12516 9.12533C4.65183 8.59755 5.28461 8.33366 6.0235 8.33366H19.1668V10.0003H6.02516C5.72627 10.0003 5.48072 10.0964 5.2885 10.2887C5.09627 10.4809 5.00016 10.7264 5.00016 11.0253V32.3087C5.00016 32.6075 5.09627 32.8531 5.2885 33.0453C5.48072 33.2375 5.72627 33.3337 6.02516 33.3337H27.3085C27.6074 33.3337 27.8529 33.2375 28.0452 33.0453C28.2374 32.8531 28.3335 32.6075 28.3335 32.3087V22.5003H30.0002V32.3087C30.0002 33.0487 29.7363 33.682 29.2085 34.2087C28.6818 34.7364 28.0485 35.0003 27.3085 35.0003H6.02516ZM9.55183 29.167H11.2185V19.167H9.55183V29.167ZM15.8335 29.167H17.5002V14.167H15.8335V29.167ZM22.1168 29.167H23.7835V24.167H22.1168V29.167ZM30.0002 19.167C29.1246 19.167 28.2841 19.0225 27.4785 18.7337C26.6729 18.4448 25.9229 18.0281 25.2285 17.4837L24.0902 18.517C23.9057 18.6725 23.7024 18.7559 23.4802 18.767C23.2568 18.7781 23.0668 18.7053 22.9102 18.5487C22.7324 18.3709 22.6435 18.1742 22.6435 17.9587C22.6435 17.7431 22.7324 17.5464 22.9102 17.3687L24.0585 16.252C23.5918 15.5653 23.2157 14.8364 22.9302 14.0653C22.6435 13.2942 22.5002 12.4948 22.5002 11.667C22.5002 9.59144 23.2313 7.82255 24.6935 6.36033C26.1557 4.8981 27.9246 4.16699 30.0002 4.16699H37.5002V11.667C37.5002 13.7425 36.7691 15.5114 35.3068 16.9737C33.8446 18.4359 32.0757 19.167 30.0002 19.167ZM30.0002 17.5003C31.6202 17.5003 32.9979 16.9337 34.1335 15.8003C35.2668 14.6637 35.8335 13.2859 35.8335 11.667V5.83366H30.0002C28.3802 5.83366 27.0024 6.40033 25.8668 7.53366C24.7335 8.67033 24.1668 10.0481 24.1668 11.667C24.1668 12.2681 24.2763 12.8459 24.4952 13.4003C24.7141 13.9559 24.9679 14.4964 25.2568 15.022L30.3268 9.95199C30.5046 9.77422 30.7013 9.68533 30.9168 9.68533C31.1324 9.68533 31.3268 9.77199 31.5002 9.94533C31.6891 10.1342 31.7835 10.3398 31.7835 10.562C31.7835 10.7842 31.6913 10.9881 31.5068 11.1737L26.4668 16.212C26.9557 16.6342 27.5074 16.9548 28.1218 17.1737C28.7363 17.3914 29.3635 17.5003 30.0002 17.5003Z" fill="white"/>
</svg>
