<svg width="80" height="16" viewBox="0 0 80 16" fill="none" xmlns="http://www.w3.org/2000/svg">
<path d="M3.88594 14.6667L4.96927 9.98333L1.33594 6.83333L6.13594 6.41667L8.0026 2L9.86927 6.41667L14.6693 6.83333L11.0359 9.98333L12.1193 14.6667L8.0026 12.1833L3.88594 14.6667Z" fill="#1BC03F"/>
<path d="M19.8859 14.6667L20.9693 9.98333L17.3359 6.83333L22.1359 6.41667L24.0026 2L25.8693 6.41667L30.6693 6.83333L27.0359 9.98333L28.1193 14.6667L24.0026 12.1833L19.8859 14.6667Z" fill="#1BC03F"/>
<path d="M35.8859 14.6667L36.9693 9.98333L33.3359 6.83333L38.1359 6.41667L40.0026 2L41.8693 6.41667L46.6693 6.83333L43.0359 9.98333L44.1193 14.6667L40.0026 12.1833L35.8859 14.6667Z" fill="#1BC03F"/>
<path d="M51.8859 14.6667L52.9693 9.98333L49.3359 6.83333L54.1359 6.41667L56.0026 2L57.8693 6.41667L62.6693 6.83333L59.0359 9.98333L60.1193 14.6667L56.0026 12.1833L51.8859 14.6667Z" fill="#1BC03F"/>
<path d="M67.8859 14.6667L68.9693 9.98333L65.3359 6.83333L70.1359 6.41667L72.0026 2L73.8693 6.41667L78.6693 6.83333L75.0359 9.98333L76.1193 14.6667L72.0026 12.1833L67.8859 14.6667Z" fill="#1BC03F"/>
</svg>
