<svg width="40" height="40" viewBox="0 0 40 40" fill="none" xmlns="http://www.w3.org/2000/svg">
<path d="M19.1667 27.5C21.0189 27.5 22.5928 26.8517 23.8884 25.555C25.185 24.2595 25.8334 22.6856 25.8334 20.8334V14.1667H19.1667C17.3145 14.1667 15.7406 14.815 14.445 16.1117C13.1484 17.4073 12.5 18.9812 12.5 20.8334C12.5 21.6 12.6078 22.3378 12.8234 23.0467C13.0389 23.7545 13.3945 24.3928 13.89 24.9617L12.7434 26.0784C12.5656 26.255 12.4767 26.4512 12.4767 26.6667C12.4767 26.8823 12.5656 27.0789 12.7434 27.2567C12.9212 27.4345 13.1178 27.5234 13.3334 27.5234C13.5489 27.5234 13.7456 27.4345 13.9234 27.2567L15.04 26.1084C15.6289 26.5828 16.2778 26.9334 16.9867 27.16C17.6967 27.3867 18.4234 27.5 19.1667 27.5ZM19.1667 25.8334C18.6389 25.8334 18.1273 25.7628 17.6317 25.6217C17.1362 25.4806 16.6778 25.2512 16.2567 24.9334L20.59 20.59C20.7678 20.4123 20.8567 20.2156 20.8567 20C20.8567 19.7845 20.7678 19.5878 20.59 19.41C20.4123 19.2323 20.2156 19.1434 20 19.1434C19.7845 19.1434 19.5878 19.2323 19.41 19.41L15.0667 23.7434C14.7489 23.3223 14.5195 22.8639 14.3784 22.3684C14.2373 21.8728 14.1667 21.3612 14.1667 20.8334C14.1667 19.4334 14.65 18.25 15.6167 17.2834C16.5834 16.3167 17.7667 15.8334 19.1667 15.8334H24.1667V20.8334C24.1667 22.2334 23.6834 23.4167 22.7167 24.3834C21.75 25.35 20.5667 25.8334 19.1667 25.8334ZM20 35.9617L14.9934 32.045L8.71837 31.2817L7.95671 25.0067L4.04004 20L7.95671 14.9934L8.71837 8.71837L14.9934 7.95671L20 4.04004L25.0067 7.95671L31.2817 8.71837L32.0434 14.9934L35.96 20L32.0434 25.0067L31.2817 31.2817L25.0067 32.0434L20 35.9617ZM20 33.8284L24.3367 30.4717L29.8184 29.7767L30.4717 24.3367L33.8267 20L30.4717 15.6634L29.7767 10.2234L24.3367 9.52837L20 6.17337L15.6634 9.52837L10.1817 10.2234L9.52837 15.6634L6.17337 20L9.52837 24.3367L10.2234 29.8184L15.6634 30.4717L20 33.8284Z" fill="white"/>
</svg>
