<svg width="32" height="32" viewBox="0 0 32 32" fill="none" xmlns="http://www.w3.org/2000/svg">
<path d="M11.561 15.6011C12.5983 17.7217 14.3173 19.4329 16.4427 20.4605C16.5982 20.5342 16.7702 20.5662 16.9418 20.5532C17.1134 20.5402 17.2786 20.4828 17.4213 20.3865L20.5507 18.2997C20.6891 18.2074 20.8484 18.1511 21.014 18.1359C21.1797 18.1207 21.3465 18.147 21.4994 18.2126L27.354 20.7217C27.5529 20.8062 27.719 20.953 27.8272 21.14C27.9353 21.3271 27.9798 21.5443 27.9538 21.7588C27.7688 23.2068 27.0623 24.5377 25.9666 25.5023C24.8709 26.4669 23.4612 26.9991 22.0015 26.9991C17.4928 26.9991 13.1688 25.2081 9.98065 22.02C6.79253 18.8318 5.00146 14.5078 5.00146 9.99915C5.00154 8.53936 5.53371 7.12966 6.49832 6.03399C7.46293 4.93832 8.79383 4.23182 10.2418 4.04677C10.4564 4.02081 10.6735 4.06527 10.8606 4.17345C11.0476 4.28163 11.1944 4.44767 11.2789 4.64655L13.7902 10.5063C13.8552 10.6579 13.8817 10.8231 13.8673 10.9874C13.8529 11.1517 13.7981 11.3098 13.7078 11.4478L11.6283 14.6253C11.5336 14.7682 11.4777 14.9333 11.4659 15.1043C11.4541 15.2753 11.4869 15.4465 11.561 15.6011V15.6011Z" stroke="white" stroke-width="2" stroke-linecap="round" stroke-linejoin="round"/>
</svg>
