<svg width="30" height="30" viewBox="0 0 30 30" fill="none" xmlns="http://www.w3.org/2000/svg">
<path d="M4.95732 7.24694L5.71145 5.4959C6.33749 4.04229 6.65051 3.31547 7.26422 2.90774C7.87794 2.5 8.65889 2.5 10.2208 2.5H19.7792C21.3411 2.5 22.122 2.5 22.7357 2.90774C23.3495 3.31547 23.6625 4.04229 24.2885 5.4959L25.0426 7.24694C26.0635 9.61735 26.574 10.8026 26.0276 11.6513C25.4811 12.5 24.2076 12.5 21.6606 12.5H8.33934C5.79234 12.5 4.51884 12.5 3.97242 11.6513C3.426 10.8026 3.93644 9.61735 4.95732 7.24694Z" stroke="#1BC03F" stroke-width="1.5" stroke-linecap="round" stroke-linejoin="round"/>
<path d="M5.625 12.5V18.75C5.625 21.107 5.625 22.2855 6.35724 23.0177C6.94666 23.6072 7.82528 23.7221 9.375 23.7446M24.375 12.5V18.75C24.375 21.107 24.375 22.2855 23.6427 23.0177C23.0534 23.6072 22.1747 23.7221 20.625 23.7446" stroke="#1BC03F" stroke-width="1.5" stroke-linecap="round" stroke-linejoin="round"/>
<path d="M16.25 17.5L13.0072 21.334C12.6114 21.8472 12.4135 22.1039 12.5361 22.302C12.6587 22.5 13.0155 22.5 13.7291 22.5H16.2709C16.9845 22.5 17.3412 22.5 17.4639 22.698C17.5865 22.8961 17.3886 23.1528 16.9927 23.666L13.7291 27.5" stroke="#1BC03F" stroke-width="1.5" stroke-linecap="round" stroke-linejoin="round"/>
<path d="M12.5 2.5L11.25 12.5M17.5 2.5L18.75 12.5" stroke="#1BC03F" stroke-width="1.5" stroke-linecap="round" stroke-linejoin="round"/>
<path d="M5 7.5H25" stroke="#1BC03F" stroke-width="1.5" stroke-linecap="round" stroke-linejoin="round"/>
</svg>
