<svg width="40" height="40" viewBox="0 0 40 40" fill="none" xmlns="http://www.w3.org/2000/svg">
<path d="M5.35352 34.9371L8.01352 21.6354H31.9552L34.6152 34.9354L5.35352 34.9371ZM6.15352 6.66708V5.00042H10.6735V6.66708H6.15352ZM7.41685 33.2704H19.1668V29.1671H8.24352L7.41685 33.2704ZM10.0168 15.3821L8.82685 14.2338L12.0168 11.0454L13.2052 12.1921L10.0168 15.3821ZM8.59018 27.5004H19.1668V23.3004H9.41685L8.59018 27.5004ZM20.0002 11.7004C18.1224 11.7004 16.5313 11.0476 15.2268 9.74208C13.9224 8.43764 13.2702 6.84653 13.2702 4.96875H14.9368C14.9368 6.37542 15.4291 7.57097 16.4135 8.55542C17.3991 9.53986 18.5957 10.0321 20.0035 10.0321C21.4113 10.0321 22.6068 9.53986 23.5902 8.55542C24.5724 7.57097 25.0635 6.37542 25.0635 4.96875H26.7302C26.7302 6.84653 26.078 8.43764 24.7735 9.74208C23.4691 11.0465 21.878 11.6993 20.0002 11.7004ZM19.1668 18.6554V14.1354H20.8335V18.6538L19.1668 18.6554ZM20.8335 33.2721H32.5502L31.7252 29.1688H20.8335V33.2721ZM20.8335 27.5021H31.3785L30.5518 23.3021H20.8335V27.5021ZM30.0485 15.4154L26.8368 12.1938L27.9835 11.0471L31.2368 14.2271L30.0485 15.4154ZM29.3268 6.66708V5.00042H33.8468V6.66708H29.3268Z" fill="#1BC03F"/>
</svg>
