<svg width="30" height="30" viewBox="0 0 30 30" fill="none" xmlns="http://www.w3.org/2000/svg">
<path d="M11.6354 26.9712V26.49C11.6354 25.8233 11.9133 25.2941 12.4692 24.9025C13.025 24.5108 13.6604 24.3029 14.3754 24.2787V14.5725C13.8046 14.4858 13.2992 14.2621 12.8592 13.9012C12.42 13.5404 12.0938 13.0958 11.8804 12.5675L8.64043 13.385C8.1146 13.5191 7.60501 13.4804 7.11168 13.2687C6.62001 13.0579 6.24001 12.7262 5.97168 12.2737L11.6492 10.8512C11.7683 9.98122 12.1442 9.26455 12.7767 8.70122C13.41 8.13955 14.1642 7.86747 15.0392 7.88497L15.9817 4.54372C16.1417 3.99038 16.4304 3.52788 16.8479 3.15622C17.2646 2.78622 17.7496 2.62038 18.3029 2.65872L16.6929 8.33122C17.2296 8.63288 17.6425 9.04247 17.9317 9.55997C18.2208 10.0775 18.3654 10.6408 18.3654 11.25C18.3654 11.5366 18.3304 11.8183 18.2604 12.095C18.1896 12.3716 18.1046 12.6425 18.0054 12.9075L20.3179 15.3325C20.7104 15.7291 20.9696 16.1958 21.0954 16.7325C21.2204 17.27 21.1454 17.7646 20.8704 18.2162L16.7829 14.1287C16.6088 14.2562 16.4254 14.3516 16.2329 14.415C16.0396 14.4783 15.8371 14.5308 15.6254 14.5725V24.2787C16.3404 24.3029 16.9758 24.5112 17.5317 24.9037C18.0875 25.2954 18.3654 25.8246 18.3654 26.4912V26.9712H11.6354ZM15.0004 13.5087C15.6338 13.5087 16.1688 13.2908 16.6054 12.855C17.0421 12.4183 17.2604 11.8833 17.2604 11.25C17.2604 10.6166 17.0421 10.0816 16.6054 9.64497C16.1688 9.2083 15.6338 8.98997 15.0004 8.98997C14.3671 8.98997 13.8321 9.2083 13.3954 9.64497C12.9588 10.0816 12.7404 10.6166 12.7404 11.25C12.7404 11.8833 12.9588 12.4183 13.3954 12.855C13.8321 13.2916 14.3671 13.5087 15.0004 13.5087Z" fill="#FF741B"/>
</svg>
