<svg width="32" height="32" viewBox="0 0 32 32" fill="none" xmlns="http://www.w3.org/2000/svg">
<path d="M11.5615 15.6011C12.5988 17.7217 14.3178 19.4329 16.4432 20.4605C16.5987 20.5342 16.7707 20.5662 16.9423 20.5532C17.1138 20.5402 17.2791 20.4828 17.4217 20.3865L20.5512 18.2997C20.6896 18.2074 20.8489 18.1511 21.0145 18.1359C21.1802 18.1207 21.347 18.147 21.4999 18.2126L27.3545 20.7217C27.5534 20.8062 27.7195 20.953 27.8276 21.14C27.9358 21.3271 27.9803 21.5443 27.9543 21.7588C27.7693 23.2068 27.0628 24.5377 25.9671 25.5023C24.8714 26.4669 23.4617 26.9991 22.002 26.9991C17.4933 26.9991 13.1693 25.2081 9.98114 22.02C6.79302 18.8318 5.00195 14.5078 5.00195 9.99915C5.00203 8.53936 5.53419 7.12966 6.4988 6.03399C7.46341 4.93832 8.79432 4.23182 10.2423 4.04677C10.4568 4.02081 10.674 4.06527 10.861 4.17345C11.0481 4.28163 11.1949 4.44767 11.2794 4.64655L13.7907 10.5063C13.8557 10.6579 13.8822 10.8231 13.8678 10.9874C13.8534 11.1517 13.7986 11.3098 13.7083 11.4478L11.6288 14.6253C11.5341 14.7682 11.4782 14.9333 11.4664 15.1043C11.4546 15.2753 11.4874 15.4465 11.5615 15.6011V15.6011Z" stroke="#02040F" stroke-width="2" stroke-linecap="round" stroke-linejoin="round"/>
</svg>
