<svg width="50" height="50" viewBox="0 0 50 50" fill="none" xmlns="http://www.w3.org/2000/svg">
<path d="M20.833 33.3333C20.833 29.405 20.833 27.4408 19.6126 26.2204C18.3922 25 16.428 25 12.4997 25C8.57134 25 6.60718 25 5.38676 26.2204C4.16634 27.4408 4.16634 29.405 4.16634 33.3333C4.16634 37.2617 4.16634 39.2258 5.38676 40.4462C6.60718 41.6667 8.57134 41.6667 12.4997 41.6667C16.428 41.6667 18.3922 41.6667 19.6126 40.4462C20.833 39.2258 20.833 37.2617 20.833 33.3333Z" stroke="#1BC03F" stroke-width="5.5"/>
<path d="M20.833 33.334V24.7144C20.833 17.075 15.592 10.5962 8.33301 8.33398" stroke="#1BC03F" stroke-width="5.5" stroke-linecap="round"/>
<path d="M45.833 33.3333C45.833 29.405 45.833 27.4408 44.6126 26.2204C43.3922 25 41.428 25 37.4997 25C33.5713 25 31.6071 25 30.3867 26.2204C29.1663 27.4408 29.1663 29.405 29.1663 33.3333C29.1663 37.2617 29.1663 39.2258 30.3867 40.4462C31.6071 41.6667 33.5713 41.6667 37.4997 41.6667C41.428 41.6667 43.3922 41.6667 44.6126 40.4462C45.833 39.2258 45.833 37.2617 45.833 33.3333Z" stroke="#1BC03F" stroke-width="5.5"/>
<path d="M45.833 33.334V24.7144C45.833 17.075 40.5919 10.5962 33.333 8.33398" stroke="#1BC03F" stroke-width="5.5" stroke-linecap="round"/>
</svg>
