<svg width="50" height="50" viewBox="0 0 50 50" fill="none" xmlns="http://www.w3.org/2000/svg">
<path d="M29.167 33.3333C29.167 29.405 29.167 27.4408 30.3874 26.2204C31.6078 25 33.572 25 37.5003 25C41.4287 25 43.3928 25 44.6132 26.2204C45.8337 27.4408 45.8337 29.405 45.8337 33.3333C45.8337 37.2617 45.8337 39.2258 44.6132 40.4462C43.3928 41.6667 41.4287 41.6667 37.5003 41.6667C33.572 41.6667 31.6078 41.6667 30.3874 40.4462C29.167 39.2258 29.167 37.2617 29.167 33.3333Z" stroke="#1BC03F" stroke-width="1.5"/>
<path d="M29.167 33.334V24.7144C29.167 17.075 34.408 10.5962 41.667 8.33398" stroke="#1BC03F" stroke-width="1.5" stroke-linecap="round"/>
<path d="M4.16699 33.3333C4.16699 29.405 4.16699 27.4408 5.38739 26.2204C6.60776 25 8.57195 25 12.5003 25C16.4287 25 18.3929 25 19.6133 26.2204C20.8337 27.4408 20.8337 29.405 20.8337 33.3333C20.8337 37.2617 20.8337 39.2258 19.6133 40.4462C18.3929 41.6667 16.4287 41.6667 12.5003 41.6667C8.57195 41.6667 6.60776 41.6667 5.38739 40.4462C4.16699 39.2258 4.16699 37.2617 4.16699 33.3333Z" stroke="#1BC03F" stroke-width="1.5"/>
<path d="M4.16699 33.334V24.7144C4.16699 17.075 9.40805 10.5962 16.667 8.33398" stroke="#1BC03F" stroke-width="1.5" stroke-linecap="round"/>
</svg>
