<svg width="50" height="50" viewBox="0 0 50 50" fill="none" xmlns="http://www.w3.org/2000/svg">
<path d="M20.832 33.3333C20.832 29.405 20.832 27.4408 19.6116 26.2204C18.3912 25 16.427 25 12.4987 25C8.57037 25 6.6062 25 5.38578 26.2204C4.16537 27.4408 4.16537 29.405 4.16537 33.3333C4.16537 37.2617 4.16537 39.2258 5.38578 40.4462C6.6062 41.6667 8.57037 41.6667 12.4987 41.6667C16.427 41.6667 18.3912 41.6667 19.6116 40.4462C20.832 39.2258 20.832 37.2617 20.832 33.3333Z" stroke="#1BC03F" stroke-width="5.5"/>
<path d="M20.832 33.334V24.7144C20.832 17.075 15.591 10.5962 8.33203 8.33398" stroke="#1BC03F" stroke-width="5.5" stroke-linecap="round"/>
<path d="M45.832 33.3333C45.832 29.405 45.832 27.4408 44.6116 26.2204C43.3913 25 41.4271 25 37.4987 25C33.5703 25 31.6061 25 30.3858 26.2204C29.1654 27.4408 29.1654 29.405 29.1654 33.3333C29.1654 37.2617 29.1654 39.2258 30.3858 40.4462C31.6061 41.6667 33.5703 41.6667 37.4987 41.6667C41.4271 41.6667 43.3913 41.6667 44.6116 40.4462C45.832 39.2258 45.832 37.2617 45.832 33.3333Z" stroke="#1BC03F" stroke-width="5.5"/>
<path d="M45.832 33.334V24.7144C45.832 17.075 40.591 10.5962 33.332 8.33398" stroke="#1BC03F" stroke-width="5.5" stroke-linecap="round"/>
</svg>
