<svg width="120" height="24" viewBox="0 0 120 24" fill="none" xmlns="http://www.w3.org/2000/svg">
<path d="M5.82891 22L7.45391 14.975L2.00391 10.25L9.20391 9.625L12.0039 3L14.8039 9.625L22.0039 10.25L16.5539 14.975L18.1789 22L12.0039 18.275L5.82891 22Z" fill="#FF741B"/>
<path d="M29.8289 22L31.4539 14.975L26.0039 10.25L33.2039 9.625L36.0039 3L38.8039 9.625L46.0039 10.25L40.5539 14.975L42.1789 22L36.0039 18.275L29.8289 22Z" fill="#FF741B"/>
<path d="M53.8289 22L55.4539 14.975L50.0039 10.25L57.2039 9.625L60.0039 3L62.8039 9.625L70.0039 10.25L64.5539 14.975L66.1789 22L60.0039 18.275L53.8289 22Z" fill="#FF741B"/>
<path d="M77.8289 22L79.4539 14.975L74.0039 10.25L81.2039 9.625L84.0039 3L86.8039 9.625L94.0039 10.25L88.5539 14.975L90.1789 22L84.0039 18.275L77.8289 22Z" fill="#FF741B"/>
<path d="M101.829 22L103.454 14.975L98.0039 10.25L105.204 9.625L108.004 3L110.804 9.625L118.004 10.25L112.554 14.975L114.179 22L108.004 18.275L101.829 22Z" fill="#FF741B"/>
</svg>
