<svg width="28" height="28" viewBox="0 0 28 28" fill="none" xmlns="http://www.w3.org/2000/svg">
<path d="M7.33333 17.3337C9.17428 17.3337 10.6667 15.8413 10.6667 14.0003C10.6667 12.1594 9.17428 10.667 7.33333 10.667C5.49238 10.667 4 12.1594 4 14.0003C4 15.8413 5.49238 17.3337 7.33333 17.3337Z" stroke="white" stroke-width="2" stroke-linecap="round" stroke-linejoin="round"/>
<path d="M19.0003 24.8337C20.8413 24.8337 22.3337 23.3413 22.3337 21.5003C22.3337 19.6594 20.8413 18.167 19.0003 18.167C17.1594 18.167 15.667 19.6594 15.667 21.5003C15.667 23.3413 17.1594 24.8337 19.0003 24.8337Z" stroke="white" stroke-width="2" stroke-linecap="round" stroke-linejoin="round"/>
<path d="M19.0003 9.83366C20.8413 9.83366 22.3337 8.34127 22.3337 6.50033C22.3337 4.65938 20.8413 3.16699 19.0003 3.16699C17.1594 3.16699 15.667 4.65938 15.667 6.50033C15.667 8.34127 17.1594 9.83366 19.0003 9.83366Z" stroke="white" stroke-width="2" stroke-linecap="round" stroke-linejoin="round"/>
<path d="M16.1962 8.30273L10.1367 12.1981" stroke="white" stroke-width="2" stroke-linecap="round" stroke-linejoin="round"/>
<path d="M10.1367 15.8027L16.1962 19.6981" stroke="white" stroke-width="2" stroke-linecap="round" stroke-linejoin="round"/>
</svg>
