<svg width="40" height="40" viewBox="0 0 40 40" fill="none" xmlns="http://www.w3.org/2000/svg">
<path d="M27.1497 4.16663H13.3619C11.4554 4.16663 10.5021 4.16663 9.79284 4.65566C9.08354 5.14468 8.80321 5.99518 8.24253 7.69619L4.39701 19.3628C3.42114 22.3235 2.93321 23.8038 3.73608 24.8186C4.53894 25.8333 6.19809 25.8333 9.51641 25.8333H23.3042C25.2107 25.8333 26.1638 25.8333 26.8732 25.3443C27.5825 24.8553 27.8628 24.0048 28.4235 22.3038L32.269 10.6371C33.2448 7.67642 33.7328 6.19611 32.93 5.18138C32.127 4.16663 30.4678 4.16663 27.1497 4.16663Z" stroke="white" stroke-width="1.5" stroke-linecap="round" stroke-linejoin="round"/>
<path d="M36.667 10L31.5965 25.3547C30.8573 27.5933 30.4877 28.7128 29.5525 29.3563C28.6172 30 27.3603 30 24.8465 30H6.66699" stroke="white" stroke-width="1.5" stroke-linecap="round" stroke-linejoin="round"/>
<path d="M7.5 11.6666H31.6667M29.1667 18.3333H5" stroke="white" stroke-width="1.5" stroke-linecap="round" stroke-linejoin="round"/>
<path d="M18.3333 30.8334V35.8334M18.3333 35.8334H21.6667M18.3333 35.8334H15" stroke="white" stroke-width="1.5" stroke-linecap="round" stroke-linejoin="round"/>
<path d="M25.833 4.16663H17.4997L10.833 25.8333H19.1663L25.833 4.16663Z" stroke="white" stroke-width="1.5" stroke-linecap="round" stroke-linejoin="round"/>
</svg>
