<svg width="30" height="30" viewBox="0 0 30 30" fill="none" xmlns="http://www.w3.org/2000/svg">
<path d="M20.3625 3.125H10.0217C8.59179 3.125 7.87685 3.125 7.34488 3.49178C6.8129 3.85854 6.60265 4.49641 6.18214 5.77217L3.298 14.5221C2.5661 16.7426 2.20015 17.8529 2.8023 18.614C3.40445 19.375 4.64881 19.375 7.13755 19.375H17.4784C18.9083 19.375 19.6231 19.375 20.1551 19.0082C20.6871 18.6415 20.8974 18.0036 21.3179 16.7279L24.202 7.97782C24.9339 5.75735 25.2999 4.64711 24.6977 3.88606C24.0955 3.125 22.8511 3.125 20.3625 3.125Z" stroke="#1BC03F" stroke-width="1.5" stroke-linecap="round" stroke-linejoin="round"/>
<path d="M27.5 7.5L23.6971 19.016C23.1428 20.695 22.8655 21.5346 22.1641 22.0173C21.4626 22.5 20.52 22.5 18.6346 22.5H5" stroke="#1BC03F" stroke-width="1.5" stroke-linecap="round" stroke-linejoin="round"/>
<path d="M5.625 8.75H23.75M21.875 13.75H3.75" stroke="#1BC03F" stroke-width="1.5" stroke-linecap="round" stroke-linejoin="round"/>
<path d="M13.75 23.125V26.875M13.75 26.875H16.25M13.75 26.875H11.25" stroke="#1BC03F" stroke-width="1.5" stroke-linecap="round" stroke-linejoin="round"/>
<path d="M19.375 3.125H13.125L8.125 19.375H14.375L19.375 3.125Z" stroke="#1BC03F" stroke-width="1.5" stroke-linecap="round" stroke-linejoin="round"/>
</svg>
