<svg width="40" height="40" viewBox="0 0 40 40" fill="none" xmlns="http://www.w3.org/2000/svg">
<path d="M5.35352 34.9367L8.01352 21.6351H31.9552L34.6152 34.9351L5.35352 34.9367ZM6.15352 6.66672V5.00005H10.6735V6.66672H6.15352ZM7.41685 33.2701H19.1668V29.1667H8.24352L7.41685 33.2701ZM10.0168 15.3817L8.82685 14.2334L12.0168 11.0451L13.2052 12.1917L10.0168 15.3817ZM8.59018 27.5001H19.1668V23.3001H9.41685L8.59018 27.5001ZM20.0002 11.7001C18.1224 11.7001 16.5313 11.0473 15.2268 9.74172C13.9224 8.43727 13.2702 6.84616 13.2702 4.96838H14.9368C14.9368 6.37505 15.4291 7.57061 16.4135 8.55505C17.3991 9.5395 18.5957 10.0317 20.0035 10.0317C21.4113 10.0317 22.6068 9.5395 23.5902 8.55505C24.5724 7.57061 25.0635 6.37505 25.0635 4.96838H26.7302C26.7302 6.84616 26.078 8.43727 24.7735 9.74172C23.4691 11.0462 21.878 11.6989 20.0002 11.7001ZM19.1668 18.6551V14.1351H20.8335V18.6534L19.1668 18.6551ZM20.8335 33.2717H32.5502L31.7252 29.1684H20.8335V33.2717ZM20.8335 27.5017H31.3785L30.5518 23.3017H20.8335V27.5017ZM30.0485 15.4151L26.8368 12.1934L27.9835 11.0467L31.2368 14.2267L30.0485 15.4151ZM29.3268 6.66672V5.00005H33.8468V6.66672H29.3268Z" fill="#003566"/>
</svg>
