<svg width="40" height="40" viewBox="0 0 40 40" fill="none" xmlns="http://www.w3.org/2000/svg">
<path d="M27.1502 4.16699H13.3624C11.4559 4.16699 10.5026 4.16699 9.79333 4.65603C9.08403 5.14504 8.8037 5.99554 8.24301 7.69656L4.3975 19.3632C3.42163 22.3238 2.9337 23.8042 3.73656 24.819C4.53943 25.8337 6.19858 25.8337 9.5169 25.8337H23.3047C25.2112 25.8337 26.1643 25.8337 26.8737 25.3447C27.583 24.8557 27.8633 24.0052 28.424 22.3042L32.2695 10.6374C33.2453 7.67679 33.7333 6.19648 32.9305 5.18174C32.1275 4.16699 30.4683 4.16699 27.1502 4.16699Z" stroke="white" stroke-width="1.5" stroke-linecap="round" stroke-linejoin="round"/>
<path d="M36.6665 10L31.596 25.3547C30.8568 27.5933 30.4872 28.7128 29.552 29.3563C28.6167 30 27.3598 30 24.846 30H6.6665" stroke="white" stroke-width="1.5" stroke-linecap="round" stroke-linejoin="round"/>
<path d="M7.5 11.667H31.6667M29.1667 18.3337H5" stroke="white" stroke-width="1.5" stroke-linecap="round" stroke-linejoin="round"/>
<path d="M18.3333 30.833V35.833M18.3333 35.833H21.6667M18.3333 35.833H15" stroke="white" stroke-width="1.5" stroke-linecap="round" stroke-linejoin="round"/>
<path d="M25.8335 4.16699H17.5002L10.8335 25.8337H19.1668L25.8335 4.16699Z" stroke="white" stroke-width="1.5" stroke-linecap="round" stroke-linejoin="round"/>
</svg>
