<svg width="304" height="50" viewBox="0 0 304 50" fill="none" xmlns="http://www.w3.org/2000/svg">
<g opacity="0.5" clip-path="url(#clip0_86_1218)">
<path d="M198.101 26.7464V40.495C198.102 40.6014 198.081 40.7068 198.04 40.8051C198 40.9034 197.94 40.9927 197.865 41.0679C197.79 41.1431 197.7 41.2026 197.602 41.243C197.504 41.2834 197.398 41.3039 197.292 41.3033H193.781C193.567 41.3026 193.362 41.2173 193.211 41.0659C193.059 40.9145 192.973 40.7093 192.972 40.495V27.2561C192.972 23.6922 190.936 21.7464 187.654 21.7464C184.045 21.7464 181.628 23.977 181.628 28.5853V40.5047C181.629 40.6112 181.608 40.7168 181.568 40.8153C181.527 40.9137 181.468 41.0032 181.393 41.0785C181.317 41.1538 181.228 41.2134 181.129 41.2539C181.031 41.2944 180.926 41.315 180.819 41.3145H177.313C177.098 41.3145 176.892 41.2291 176.74 41.0773C176.589 40.9254 176.503 40.7195 176.503 40.5047V8.88946C176.504 8.67493 176.59 8.4694 176.741 8.3177C176.893 8.16601 177.098 8.08047 177.313 8.07973H180.819C180.926 8.07937 181.031 8.10006 181.129 8.14062C181.228 8.18119 181.317 8.24081 181.392 8.31608C181.467 8.39134 181.527 8.48075 181.568 8.57916C181.608 8.67756 181.629 8.78302 181.628 8.88946V20.6006C183.196 18.177 185.618 16.945 188.987 16.945C194.448 16.9603 198.101 20.6672 198.101 26.7464ZM278.146 26.7436V40.4922C278.147 40.5986 278.126 40.704 278.085 40.8023C278.045 40.9007 277.985 40.99 277.91 41.0651C277.835 41.1403 277.745 41.1998 277.647 41.2402C277.549 41.2806 277.443 41.3011 277.337 41.3006H273.826C273.72 41.3009 273.615 41.2803 273.517 41.2398C273.418 41.1993 273.329 41.1398 273.254 41.0647C273.179 40.9896 273.119 40.9004 273.078 40.8021C273.038 40.7039 273.017 40.5986 273.017 40.4922V27.2533C273.017 23.6881 270.981 21.7436 267.699 21.7436C264.092 21.7436 261.673 23.9742 261.673 28.5825V40.502C261.674 40.6084 261.653 40.714 261.613 40.8125C261.572 40.911 261.513 41.0004 261.438 41.0757C261.362 41.151 261.273 41.2107 261.175 41.2512C261.076 41.2917 260.971 41.3122 260.864 41.3117H257.358C257.143 41.3117 256.937 41.2264 256.785 41.0745C256.634 40.9227 256.548 40.7167 256.548 40.502V18.3825C256.548 18.276 256.568 18.1705 256.609 18.072C256.649 17.9735 256.709 17.884 256.784 17.8087C256.86 17.7334 256.949 17.6738 257.047 17.6333C257.146 17.5928 257.251 17.5722 257.358 17.5728H260.864C260.97 17.5725 261.076 17.5933 261.174 17.6341C261.272 17.6749 261.361 17.7348 261.436 17.8103C261.511 17.8854 261.571 17.9746 261.612 18.0727C261.652 18.1709 261.673 18.2762 261.673 18.3825V20.6131C263.241 18.1895 265.663 16.9575 269.032 16.9575C274.487 16.9575 278.146 20.6645 278.146 26.7436V26.7436ZM118.098 38.3339C115.984 36.2739 114.652 33.543 114.329 30.6085C114.007 27.674 114.713 24.7185 116.328 22.2479C117.944 19.7773 120.367 17.9452 123.183 17.0653C126 16.1853 129.034 16.3122 131.767 17.4243C134.501 18.5363 136.763 20.5643 138.166 23.1611C139.57 25.758 140.027 28.7622 139.461 31.6594C138.894 34.5567 137.339 37.1669 135.061 39.0433C132.783 40.9196 129.924 41.9454 126.974 41.945C125.326 41.981 123.689 41.6792 122.162 41.0582C120.636 40.4371 119.253 39.51 118.098 38.3339V38.3339ZM126.974 36.9589C127.951 36.9812 128.922 36.8031 129.828 36.4355C130.734 36.0679 131.555 35.5186 132.24 34.8214C133.612 33.3717 134.377 31.4512 134.377 29.4547C134.377 27.4583 133.612 25.5378 132.24 24.0881C130.828 22.7176 128.938 21.9511 126.971 21.9511C125.004 21.9511 123.114 22.7176 121.702 24.0881C120.331 25.5382 119.567 27.4586 119.567 29.4547C119.567 31.4509 120.331 33.3712 121.702 34.8214C122.388 35.5196 123.209 36.0696 124.116 36.4375C125.023 36.8054 125.995 36.9833 126.974 36.9603V36.9589ZM148.144 21.5686C149.364 18.7631 151.66 17.6839 154.953 17.5867C155.088 17.587 155.217 17.6409 155.312 17.7365C155.407 17.832 155.461 17.9615 155.461 18.0964V21.7575C155.463 21.9577 155.39 22.1514 155.257 22.3003C155.123 22.4493 154.938 22.5425 154.739 22.5617C153.148 22.6488 151.617 23.2013 150.337 24.1506C148.866 25.1936 148.154 26.9506 148.154 29.3742V40.5297C148.153 40.7443 148.068 40.9498 147.916 41.1015C147.764 41.2532 147.559 41.3387 147.344 41.3395H143.838C143.732 41.3398 143.626 41.3191 143.528 41.2786C143.43 41.238 143.34 41.1784 143.265 41.1031C143.19 41.0278 143.13 40.9384 143.09 40.84C143.049 40.7416 143.028 40.6362 143.029 40.5297V18.3867C143.03 18.1721 143.115 17.9666 143.266 17.8145C143.341 17.739 143.43 17.6792 143.528 17.6384C143.626 17.5976 143.732 17.5767 143.838 17.577H147.344C147.559 17.5781 147.764 17.6637 147.915 17.8153C148.067 17.9669 148.153 18.1723 148.154 18.3867L148.144 21.5686V21.5686ZM247.337 17.5783H250.828C251.042 17.5794 251.247 17.6651 251.399 17.8168C251.55 17.9685 251.635 18.1738 251.636 18.3881V40.5172C251.635 40.7316 251.551 40.9371 251.4 41.0895C251.247 41.2399 251.042 41.3247 250.828 41.3256H247.322C247.161 41.3266 247.004 41.2795 246.871 41.1904C246.737 41.1012 246.634 40.9742 246.573 40.8256C246.533 40.7277 246.513 40.623 246.512 40.5172V37.9103C244.568 40.6131 241.815 41.9478 238.207 41.9478C236.638 41.9699 235.083 41.6595 233.643 41.0372C232.202 40.4148 230.91 39.4945 229.851 38.3367C227.623 35.9167 226.386 32.7469 226.386 29.4568C226.386 26.1667 227.623 22.9969 229.851 20.577C230.91 19.4193 232.202 18.4991 233.643 17.877C235.083 17.2548 236.639 16.9448 238.207 16.9672C241.815 16.9672 244.568 18.2964 246.512 20.9533V18.4089C246.51 18.2996 246.529 18.191 246.57 18.0895C246.61 17.988 246.671 17.8957 246.748 17.8182C246.825 17.7406 246.917 17.6794 247.018 17.6382C247.119 17.597 247.228 17.5766 247.337 17.5783V17.5783ZM239.026 37.0506C240.019 37.0776 241.006 36.9019 241.928 36.5341C242.851 36.1664 243.688 35.6143 244.39 34.9117C245.093 34.1902 245.645 33.335 246.012 32.3964C246.379 31.4579 246.555 30.4553 246.528 29.4478C246.558 28.4475 246.385 27.4515 246.017 26.5208C245.649 25.5901 245.096 24.7443 244.39 24.0353C242.956 22.6342 241.031 21.8498 239.026 21.8498C237.022 21.8498 235.097 22.6342 233.662 24.0353C232.956 24.7439 232.402 25.5897 232.034 26.5205C231.667 27.4513 231.493 28.4474 231.525 29.4478C231.496 30.4552 231.671 31.4581 232.038 32.3965C232.406 33.335 232.958 34.1899 233.662 34.9103C234.363 35.6146 235.2 36.1681 236.123 36.5369C237.045 36.9057 238.033 37.0819 239.026 37.0547V37.0492V37.0506ZM222.07 8.07973H218.564C218.349 8.07973 218.143 8.16504 217.991 8.3169C217.84 8.46875 217.754 8.6747 217.754 8.88946V40.5145C217.754 40.9617 218.117 41.3242 218.564 41.3242H222.07C222.517 41.3242 222.879 40.9631 222.879 40.5145V8.88946C222.879 8.6747 222.794 8.46875 222.642 8.3169C222.491 8.16504 222.285 8.07973 222.07 8.07973ZM105.47 8.88946V32.6631L91.5847 8.68668C91.4787 8.50234 91.326 8.3492 91.142 8.24265C90.958 8.13611 90.7493 8.07992 90.5367 8.07973H85.5339C85.3193 8.07973 85.1134 8.16504 84.9616 8.3169C84.8099 8.46875 84.7246 8.6747 84.7246 8.88946V40.5145C84.7246 40.7292 84.8099 40.9352 84.9616 41.087C85.1134 41.2389 85.3193 41.3242 85.5339 41.3242H89.3762C89.5909 41.3242 89.7967 41.2389 89.9485 41.087C90.1002 40.9352 90.1855 40.7292 90.1855 40.5145V16.7714L104.002 40.7033C104.108 40.8873 104.261 41.0401 104.445 41.1464C104.629 41.2527 104.837 41.3087 105.05 41.3089H110.138C110.353 41.3089 110.559 41.2236 110.711 41.0717C110.862 40.9199 110.948 40.7139 110.948 40.4992V8.88946C110.948 8.67495 110.863 8.4692 110.711 8.31739C110.56 8.16557 110.354 8.0801 110.14 8.07973H106.298C106.19 8.0777 106.083 8.09715 105.983 8.13693C105.883 8.17671 105.792 8.23603 105.715 8.31143C105.639 8.38682 105.578 8.47677 105.536 8.57602C105.494 8.67527 105.473 8.78182 105.473 8.88946H105.47ZM302.371 41.3242H298.192C297.977 41.3239 297.766 41.2662 297.581 41.157C297.396 41.0479 297.243 40.8913 297.139 40.7033L292.178 31.6047H287.377V40.5297C287.377 40.7441 287.292 40.9497 287.14 41.1014C286.989 41.2531 286.784 41.3387 286.569 41.3395H283.058C282.951 41.3398 282.846 41.3191 282.747 41.2786C282.649 41.238 282.56 41.1784 282.484 41.1031C282.409 41.0278 282.35 40.9384 282.309 40.84C282.269 40.7416 282.248 40.6362 282.248 40.5297V8.89085C282.248 8.78424 282.268 8.67855 282.308 8.5799C282.349 8.48125 282.408 8.3916 282.484 8.31615C282.559 8.24071 282.648 8.18096 282.747 8.14038C282.845 8.09979 282.951 8.07918 283.058 8.07973H286.569C286.784 8.08083 286.989 8.16654 287.14 8.31819C287.291 8.46985 287.377 8.67517 287.377 8.88946V26.8756H291.719L296.696 18.195C296.802 18.0091 296.955 17.8546 297.14 17.7472C297.325 17.6399 297.536 17.5835 297.749 17.5839H302.008C302.091 17.5899 302.17 17.6161 302.24 17.6601C302.31 17.7042 302.368 17.7648 302.409 17.8367C302.45 17.9085 302.473 17.989 302.475 18.0715C302.478 18.1539 302.461 18.2358 302.426 18.3103L296.1 29.2172L302.798 40.5978C302.834 40.673 302.851 40.7561 302.847 40.8395C302.842 40.9653 302.791 41.0851 302.703 41.175C302.615 41.265 302.496 41.3187 302.371 41.3256V41.3242ZM214.247 11.8436V8.88946C214.246 8.67493 214.16 8.4694 214.009 8.3177C213.857 8.16601 213.652 8.08047 213.437 8.07973H208.119C207.671 8.07937 207.228 8.16739 206.814 8.33875C206.4 8.51012 206.024 8.76147 205.707 9.07842C205.39 9.39537 205.139 9.77171 204.968 10.1859C204.796 10.6001 204.708 11.044 204.709 11.4922V17.5756H201.91C201.804 17.5754 201.698 17.5962 201.6 17.637C201.502 17.6777 201.412 17.7374 201.337 17.8128C201.262 17.8882 201.202 17.9777 201.162 18.0762C201.121 18.1747 201.101 18.2802 201.101 18.3867V21.7103C201.102 21.9253 201.187 22.1314 201.338 22.2839C201.413 22.3591 201.503 22.4187 201.601 22.4592C201.699 22.4997 201.804 22.5204 201.91 22.52H204.709V40.52C204.71 40.7345 204.795 40.9401 204.947 41.0918C205.098 41.2435 205.304 41.329 205.518 41.3297H209.03C209.245 41.3297 209.451 41.2444 209.602 41.0926C209.754 40.9407 209.839 40.7348 209.839 40.52V22.5145H213.442C213.548 22.5148 213.653 22.4941 213.752 22.4536C213.85 22.413 213.939 22.3534 214.015 22.2781C214.09 22.2028 214.149 22.1134 214.19 22.015C214.231 21.9166 214.251 21.8112 214.251 21.7047V18.3797C214.25 18.1652 214.165 17.9597 214.013 17.8075C213.939 17.7319 213.85 17.672 213.751 17.6312C213.653 17.5905 213.548 17.5696 213.442 17.57H209.839V12.6422H213.442C213.653 12.6405 213.856 12.556 214.006 12.4068C214.157 12.2576 214.243 12.0555 214.247 11.8436V11.8436ZM167.107 26.8839V22.5158H172.196C172.411 22.5158 172.617 22.4305 172.768 22.2787C172.92 22.1268 173.005 21.9209 173.005 21.7061V18.3867C173.006 18.2802 172.985 18.1746 172.945 18.0762C172.904 17.9777 172.845 17.8882 172.77 17.8129C172.694 17.7376 172.605 17.678 172.506 17.6375C172.408 17.597 172.303 17.5764 172.196 17.577H167.107V8.88946C167.106 8.67493 167.021 8.4694 166.869 8.3177C166.718 8.16601 166.512 8.08047 166.298 8.07973H162.786C162.571 8.07973 162.366 8.16504 162.214 8.3169C162.062 8.46875 161.977 8.6747 161.977 8.88946V17.577H158.415C158.308 17.5768 158.203 17.5976 158.105 17.6382C158.007 17.6788 157.917 17.7385 157.842 17.8137C157.767 17.8889 157.707 17.9783 157.667 18.0766C157.626 18.1749 157.605 18.2803 157.605 18.3867V21.7061C157.605 21.8126 157.625 21.9182 157.666 22.0166C157.706 22.1151 157.766 22.2046 157.841 22.2799C157.917 22.3552 158.006 22.4148 158.104 22.4553C158.203 22.4958 158.308 22.5164 158.415 22.5158H161.977V36.1922C161.976 36.8664 162.109 37.5339 162.367 38.1567C162.625 38.7794 163.003 39.3451 163.48 39.8214C163.956 40.298 164.522 40.676 165.144 40.9339C165.767 41.1917 166.434 41.3243 167.107 41.3242H172.196C172.411 41.3242 172.617 41.2389 172.768 41.087C172.92 40.9352 173.005 40.7292 173.005 40.5145V37.5617C173.006 37.4552 172.985 37.3496 172.945 37.2512C172.904 37.1527 172.845 37.0632 172.77 36.9879C172.694 36.9126 172.605 36.853 172.506 36.8125C172.408 36.772 172.303 36.7514 172.196 36.752H168.995C168.494 36.752 168.014 36.5529 167.66 36.1987C167.306 35.8445 167.107 35.364 167.107 34.8631V26.8839Z" fill="#031306" fill-opacity="0.7"/>
<path d="M48.8744 23.7486L43.755 25.0111L40.833 19.9194L39.027 16.7819L36.992 13.2792L32.2585 5.07639H24.6044L5.46072 38.2597L9.29195 44.8792H12.2153V49.9708H7.82886C7.38444 49.9695 6.94812 49.8518 6.56332 49.6293C6.17853 49.4068 5.85868 49.0874 5.63562 48.7028L0.339914 39.5375C0.116592 39.1505 -0.000976562 38.7115 -0.000976562 38.2646C-0.000976563 37.8177 0.116592 37.3787 0.339914 36.9917L20.955 1.26806C21.1782 0.883252 21.4982 0.563684 21.8833 0.341196C22.2684 0.118708 22.705 0.00106838 23.1496 0L33.7355 0C34.1799 0.00131078 34.6162 0.119065 35.001 0.341541C35.3858 0.564017 35.7057 0.883455 35.9287 1.26806L42.8611 13.2681L43.7606 14.8431L45.7969 18.3403L46.7034 19.9097L48.8758 23.7486H48.8744Z" fill="#031306" fill-opacity="0.7"/>
<path d="M27.5393 36.7162L20.6125 48.7176C20.39 49.1031 20.0705 49.4236 19.6857 49.6471C19.3008 49.8705 18.8642 49.9892 18.4193 49.9912H12.2157L5.46387 38.2801L9.2951 44.8995H16.9298L24.5923 31.6204L27.5393 36.7176V36.7162Z" fill="#031306" fill-opacity="0.7"/>
<path d="M48.8737 26.2838L43.5808 35.4505C43.3582 35.8359 43.0386 36.1561 42.6538 36.3794C42.269 36.6026 41.8324 36.721 41.3875 36.7227H35.1993L33.1643 33.2186L32.2578 31.6505H39.8925L43.7182 25.0324L42.9908 23.7686H48.8376C49.061 24.1487 49.1817 24.5805 49.188 25.0214C49.1944 25.4624 49.0861 25.8974 48.8737 26.2838V26.2838Z" fill="#031306" fill-opacity="0.7"/>
<path d="M62.9096 5.10247H55.2458L47.6111 18.3775L44.6904 13.2844L51.6214 1.28441C51.8444 0.899812 52.1643 0.580375 52.5491 0.357899C52.9339 0.135423 53.3702 0.0176682 53.8146 0.0163574H59.9876L62.9096 5.10247V5.10247Z" fill="#031306" fill-opacity="0.7"/>
<path d="M71.8596 13.0082L51.2487 48.7277C51.0261 49.1131 50.7065 49.4333 50.3217 49.6566C49.9369 49.8798 49.5003 49.9982 49.0554 49.9999H38.471C38.0261 49.9982 37.5895 49.8798 37.2047 49.6566C36.8199 49.4333 36.5003 49.1131 36.2777 48.7277L30.2532 38.2888L28.4404 35.1568L26.4054 31.6541L25.4989 30.086L23.3057 26.2832L28.4251 25.0096L31.3513 30.1013L32.2577 31.6707L33.1628 33.2374L35.1991 36.7416L36.1 38.3041L39.0248 43.3957L39.9313 44.9652H47.566L66.7138 11.7749L62.8867 5.15546H60.0522L59.962 0.0651855H64.3484C64.7929 0.0664963 65.2292 0.184251 65.614 0.406727C65.9988 0.629203 66.3186 0.948641 66.5417 1.33324L71.8346 10.4985C72.055 10.8791 72.1731 11.3103 72.1775 11.7501C72.1819 12.1899 72.0723 12.6234 71.8596 13.0082V13.0082Z" fill="#031306" fill-opacity="0.7"/>
<path d="M32.2669 18.3715L28.4398 24.9909L29.1727 26.2631H23.3204C23.0971 25.8761 22.9795 25.4371 22.9795 24.9902C22.9795 24.5433 23.0971 24.1043 23.3204 23.7173L28.6133 14.552C28.8363 14.1658 29.1568 13.845 29.5427 13.6217C29.9286 13.3985 30.3663 13.2805 30.8121 13.2798H37.0045L39.0409 16.7826L39.946 18.3506L32.2669 18.3715V18.3715Z" fill="#031306" fill-opacity="0.7"/>
</g>
<defs>
<clipPath id="clip0_86_1218">
<rect width="304" height="50" fill="white"/>
</clipPath>
</defs>
</svg>
