<svg width="263" height="50" viewBox="0 0 263 50" fill="none" xmlns="http://www.w3.org/2000/svg">
<g opacity="0.5">
<path d="M160.655 9.46317V42.2994H169.917V9.46317H160.655ZM87.8564 9.40894V42.2723H97.2V16.7571L104.485 16.7842C106.868 16.7842 108.548 17.3807 109.685 18.6009C111.148 20.1465 111.743 22.6953 111.743 27.2777V42.2723H120.789V24.1324C120.789 11.1714 112.529 9.40894 104.485 9.40894C104.485 9.40894 87.8564 9.40894 87.8564 9.40894ZM175.577 9.46317V42.2994H190.581C198.57 42.2994 201.197 40.9708 204.014 37.9881C206.018 35.9003 207.291 31.2907 207.291 26.2473C207.291 21.6378 206.208 17.5163 204.285 14.9404C200.9 10.358 195.943 9.46317 188.55 9.46317H175.577ZM184.758 16.5944H188.739C194.508 16.5944 198.245 19.1703 198.245 25.9219C198.245 32.6465 194.535 35.2495 188.739 35.2495H184.758V16.5944ZM147.33 9.46317L139.611 35.4664L132.218 9.46317H122.224L132.787 42.2994H146.111L156.755 9.46317H147.33ZM211.624 42.2723H220.887V9.46317H211.624V42.2723ZM237.57 9.46317L224.651 42.2723H233.778L235.836 36.4968H251.138L253.088 42.2723H263L249.946 9.46317H237.57ZM243.582 15.4556L249.188 30.8027H237.786L243.582 15.4556Z" fill="#031306" fill-opacity="0.7"/>
<path d="M28.1389 14.9132V10.4122C28.5722 10.385 29.0326 10.3579 29.466 10.3579C41.8157 9.97831 49.8863 20.9599 49.8863 20.9599C49.8863 20.9599 41.1657 33.1074 31.7951 33.1074C30.4409 33.1074 29.2493 32.8905 28.166 32.5108V18.8178C32.9596 19.4143 33.9346 21.5293 36.8324 26.3286L43.251 20.9056C43.251 20.9056 38.5657 14.7505 30.6576 14.7505C29.7909 14.7777 28.9514 14.8319 28.1389 14.9132ZM28.1389 0V6.72452C28.5722 6.6974 29.0326 6.67028 29.466 6.64317C46.6093 6.04664 57.7944 20.7158 57.7944 20.7158C57.7944 20.7158 44.9572 36.3612 31.6055 36.3612C30.3868 36.3612 29.2493 36.2527 28.166 36.0629V40.2386C29.0868 40.3471 30.0618 40.4284 31.0367 40.4284C43.4948 40.4284 52.4862 34.0564 61.2069 26.5456C62.6422 27.7115 68.5733 30.5315 69.7921 31.7516C61.5048 38.6931 42.1948 44.3059 31.2534 44.3059C30.1972 44.3059 29.1951 44.2516 28.1931 44.1432V50H75.5065V0H28.1389ZM28.1389 32.538V36.09C16.6288 34.0293 13.433 22.0445 13.433 22.0445C13.433 22.0445 18.9579 15.9165 28.1389 14.9132V18.8178C28.1389 18.8178 28.1389 18.8178 28.1118 18.8178C23.3182 18.2213 19.5266 22.7495 19.5266 22.7495C19.5266 22.7495 21.6661 30.3145 28.1389 32.538ZM7.69148 21.5293C7.69148 21.5293 14.5163 11.4696 28.1389 10.4122V6.75163C13.0539 7.97181 0 20.7701 0 20.7701C0 20.7701 7.39357 42.1909 28.1389 44.1703V40.2657C12.9184 38.3406 7.69148 21.5293 7.69148 21.5293Z" fill="#031306" fill-opacity="0.7"/>
</g>
</svg>
