<svg width="222" height="50" viewBox="0 0 222 50" fill="none" xmlns="http://www.w3.org/2000/svg">
<g opacity="0.5">
<path d="M14.0703 29.0771C13.6272 29.3663 13.3484 29.8489 13.3193 30.3769V42.4733C13.3484 43.0013 13.6272 43.4839 14.0703 43.7731L24.5539 49.8213C25.0261 50.0595 25.5835 50.0595 26.0558 49.8213L36.5394 43.7731C36.9824 43.4839 37.2612 43.0013 37.2903 42.4733V30.3736C37.2612 29.8456 36.9824 29.363 36.5394 29.0738L26.0558 23.0288C25.5835 22.7907 25.0261 22.7907 24.5539 23.0288L14.0703 29.0771ZM27.2184 6.3222C26.7763 6.61075 26.4976 7.09194 26.4675 7.61871V19.7184C26.4966 20.2464 26.7754 20.729 27.2184 21.0182L37.702 27.0632C38.1742 27.3019 38.7318 27.3019 39.2039 27.0632L49.6908 21.015C50.1339 20.7257 50.4127 20.2431 50.4418 19.7152V7.622C50.4127 7.09405 50.1339 6.61143 49.6908 6.3222L39.2039 0.27398C38.7318 0.035301 38.1742 0.035301 37.702 0.27398L27.2184 6.3222Z" fill="#031306" fill-opacity="0.7"/>
<path d="M40.3337 29.0574C39.8907 29.3466 39.6119 29.8292 39.5828 30.3572V42.4536C39.6119 42.9816 39.8907 43.4642 40.3337 43.7534L50.8173 49.8016C51.2896 50.0398 51.847 50.0398 52.3192 49.8016L62.8028 43.7534C63.2459 43.4642 63.5247 42.9816 63.5538 42.4536V30.3572C63.5247 29.8292 63.2459 29.3466 62.8028 29.0574L52.3258 23.0092C51.8535 22.771 51.2962 22.771 50.8239 23.0092L40.3337 29.0574ZM0.750946 6.22683C0.308811 6.51539 0.0301061 6.99657 0 7.52335V19.6198C0.0290824 20.1477 0.307908 20.6304 0.750946 20.9196L11.2346 26.9645C11.7067 27.2032 12.2643 27.2032 12.7364 26.9645L23.22 20.9163C23.6631 20.6271 23.9419 20.1444 23.971 19.6165V7.52335C23.9409 6.99657 23.6622 6.51539 23.22 6.22683L12.7364 0.178613C12.2642 -0.0595376 11.7068 -0.0595376 11.2346 0.178613L0.750946 6.22683Z" fill="#031306" fill-opacity="0.7"/>
<path d="M69.084 8.41711C70.3296 8.20733 71.7931 8.03211 73.4746 7.89143C75.1562 7.75076 76.9548 7.68042 78.8705 7.68042C81.0039 7.65061 83.1341 7.85296 85.2229 8.28384C86.8876 8.62431 88.4465 9.35271 89.7705 10.4088C91.8855 12.1561 92.943 14.6388 92.943 17.8571C92.9521 18.8841 92.7814 19.9049 92.4385 20.8741C92.1192 21.7707 91.6739 22.6181 91.1157 23.3915C90.5788 24.1336 89.9283 24.788 89.1876 25.3313C88.472 25.8591 87.6892 26.291 86.8596 26.6158V26.775C88.0781 27.2501 89.1085 28.1034 89.7966 29.2072C90.5965 30.5284 91.1768 31.9683 91.5155 33.4718C91.7647 34.459 92.0138 35.4536 92.2629 36.4556C92.512 37.4576 92.7499 38.4078 92.9766 39.3061C93.2058 40.1946 93.4262 40.988 93.638 41.6864C93.7889 42.2245 93.9839 42.7494 94.2209 43.2561H86.2766C85.8368 42.3265 85.501 41.352 85.2752 40.35C84.8891 38.9014 84.4681 37.1108 84.0122 34.9785C83.5912 32.7771 82.9858 31.2963 82.1961 30.5362C81.4065 29.7761 80.2767 29.3861 78.8069 29.3664H76.7966V43.2524H69.084V8.41711ZM76.7966 23.8135H79.3712C81.2271 23.8135 82.6632 23.331 83.6796 22.366C84.7112 21.3656 85.2654 19.9782 85.2042 18.5493C85.2042 15.2126 83.3994 13.5097 79.7897 13.4406C79.166 13.4334 78.5423 13.4594 77.9213 13.5184C77.544 13.5559 77.1695 13.6178 76.8003 13.7035L76.7966 23.8135ZM105.925 43.7785C104.247 43.7972 102.582 43.4944 101.019 42.8864C99.5604 42.3124 98.2445 41.4282 97.1628 40.2952C96.0381 39.0956 95.1723 37.6782 94.6191 36.1308C93.9826 34.3497 93.6711 32.4691 93.6995 30.5782C93.6666 28.6414 93.987 26.7147 94.6451 24.8924C95.22 23.3205 96.1138 21.8839 97.2703 20.6725C98.3924 19.5128 99.7503 18.6066 101.253 18.0147C102.858 17.391 104.569 17.0794 106.292 17.0967C107.983 17.0725 109.661 17.3937 111.223 18.0406C112.662 18.6476 113.951 19.5595 115.002 20.7132C116.086 21.9245 116.915 23.3406 117.441 24.8776C118.035 26.6055 118.327 28.4222 118.305 30.2488C118.36 32.3803 117.981 34.5007 117.193 36.4824C116.547 38.065 115.573 39.493 114.334 40.6727C113.198 41.7343 111.846 42.5386 110.37 43.0307C108.951 43.5138 107.462 43.7638 105.962 43.7711L105.925 43.7785ZM106.136 38.2259C106.803 38.2329 107.455 38.0209 107.99 37.6226C108.569 37.1765 109.036 36.6025 109.354 35.9457C109.747 35.1586 110.03 34.3217 110.196 33.4581C110.394 32.4573 110.491 31.4392 110.485 30.4191C110.485 29.48 110.406 28.5426 110.248 27.6169C110.11 26.7567 109.855 25.9197 109.488 25.1293C109.172 24.4414 108.706 23.8329 108.123 23.3488C107.543 22.8879 106.818 22.6467 106.077 22.6677C105.303 22.647 104.546 22.8869 103.926 23.3488C103.325 23.8211 102.845 24.4304 102.528 25.1256C102.161 25.9159 101.905 26.753 101.768 27.6132C101.61 28.5389 101.531 29.4763 101.531 30.4154C101.523 31.4527 101.62 32.4883 101.82 33.5063C101.982 34.3657 102.273 35.1956 102.684 35.9679C103.026 36.6176 103.51 37.182 104.1 37.6188C104.684 38.0275 105.383 38.2389 106.095 38.2222L106.136 38.2259ZM143.243 35.1055C143.243 36.712 143.26 38.1927 143.294 39.5475C143.328 40.9024 143.379 42.1363 143.447 43.2492H136.923L136.558 39.8955H136.405C136.095 40.3589 135.749 40.797 135.372 41.2059C134.927 41.6872 134.424 42.11 133.876 42.4645C133.234 42.8752 132.539 43.1929 131.811 43.4084C130.938 43.6651 130.033 43.7898 129.125 43.7786C126.612 43.7786 124.615 42.905 123.133 41.1578C121.652 39.4106 120.917 36.6232 120.929 32.7956L120.929 17.6186H128.472V31.6481C128.472 33.5014 128.747 34.9426 129.296 35.9717C129.811 36.9809 130.864 37.5864 131.982 37.5153C132.795 37.5584 133.593 37.2767 134.204 36.7305C134.715 36.2647 135.121 35.6927 135.394 35.0537C135.626 34.4662 135.732 33.8351 135.704 33.2028V17.6186H143.243V35.1055ZM156.656 11.34V18.0974H162.3V23.5645H156.656V33.4053C156.656 34.9531 156.898 36.0466 157.381 36.6856C157.865 37.3246 158.645 37.643 159.721 37.6405C160.124 37.6454 160.528 37.6284 160.929 37.5895C161.233 37.5555 161.582 37.5045 161.977 37.4364L162.03 43.1623C161.356 43.3708 160.663 43.5172 159.96 43.5997C158.99 43.725 158.011 43.7847 157.032 43.7783C155.878 43.7947 154.73 43.6107 153.644 43.2352C152.72 42.9246 151.877 42.4275 151.171 41.7773C150.372 40.9787 149.79 40.0036 149.477 38.938C149.059 37.4588 148.869 35.9288 148.911 34.3967V23.5645H145.542V18.0974H148.93V13.454L156.656 11.34ZM167.977 14.9865C166.866 15.0326 165.785 14.63 164.995 13.8756C164.245 13.1356 163.84 12.1328 163.874 11.0985C163.835 10.0425 164.252 9.01821 165.026 8.26962C165.849 7.50866 166.96 7.10703 168.099 7.15879C169.21 7.11315 170.291 7.51568 171.081 8.26962C171.838 9.03532 172.257 10.0552 172.248 11.1134C172.28 12.153 171.863 13.1588 171.096 13.8904C170.273 14.651 169.162 15.0526 168.023 15.0013L167.977 14.9865ZM164.093 18.1486H172.087V43.7793H164.093V18.1486ZM221.858 43.2404C221.019 43.5932 220.14 43.8431 219.24 43.9844C218.005 44.2032 216.753 44.309 215.499 44.3006C213.684 44.3293 211.88 44.0267 210.175 43.4078C208.655 42.844 207.274 41.9638 206.124 40.8262C204.969 39.6665 204.083 38.2699 203.527 36.7342C202.902 34.9766 202.597 33.1224 202.626 31.2584C202.609 29.427 202.923 27.6075 203.554 25.8868C204.752 22.5811 207.328 19.9514 210.62 18.6738C212.509 17.943 214.523 17.5854 216.55 17.621C217.543 17.6188 218.535 17.7072 219.513 17.8851C220.362 18.0324 221.195 18.2616 222 18.5696L220.852 24.2872C220.337 24.0847 219.805 23.9267 219.262 23.8148C218.495 23.6616 217.714 23.5905 216.931 23.6027C214.919 23.6027 213.339 24.2872 212.192 25.6562C211.044 27.0251 210.471 28.7809 210.471 30.9236C210.471 33.2746 211.094 35.0826 212.341 36.3473C213.557 37.6044 215.249 38.2933 217.002 38.2445C218.382 38.2826 219.754 38.0291 221.028 37.5005L221.858 43.2404ZM185.315 17.1191C185.279 15.8562 185.696 14.6224 186.489 13.6443C187.271 12.6968 188.673 12.2231 190.696 12.2231C191.254 12.2222 191.812 12.2532 192.367 12.3161V6.20354C191.744 6.14402 191.116 6.11053 190.485 6.11053C188.615 6.07714 186.752 6.36267 184.976 6.95506C183.514 7.44514 182.165 8.22426 181.005 9.24681C179.961 10.1876 179.132 11.3468 178.577 12.6435C178.013 13.974 177.728 15.4079 177.74 16.855V18.0306H174.345V23.6112H177.74V43.7793H185.367V23.6112H192.378V43.7793H200.006V18.0306H185.315V17.1191Z" fill="#031306" fill-opacity="0.7"/>
</g>
</svg>
