<svg width="230" height="58" viewBox="0 0 230 58" fill="none" xmlns="http://www.w3.org/2000/svg">
<g filter="url(#filter0_d_86_1220)">
<path d="M18.0703 29.0771C17.6272 29.3663 17.3484 29.8489 17.3193 30.3769V42.4733C17.3484 43.0013 17.6272 43.4839 18.0703 43.7731L28.5539 49.8213C29.0261 50.0595 29.5835 50.0595 30.0558 49.8213L40.5394 43.7731C40.9824 43.4839 41.2612 43.0013 41.2903 42.4733V30.3736C41.2612 29.8456 40.9824 29.363 40.5394 29.0738L30.0558 23.0288C29.5835 22.7907 29.0261 22.7907 28.5539 23.0288L18.0703 29.0771ZM31.2184 6.3222C30.7763 6.61075 30.4976 7.09194 30.4675 7.61871V19.7184C30.4966 20.2464 30.7754 20.729 31.2184 21.0182L41.702 27.0632C42.1742 27.3019 42.7318 27.3019 43.2039 27.0632L53.6908 21.015C54.1339 20.7257 54.4127 20.2431 54.4418 19.7152V7.62201C54.4127 7.09405 54.1339 6.61143 53.6908 6.3222L43.2039 0.27398C42.7318 0.035301 42.1742 0.035301 41.702 0.27398L31.2184 6.3222Z" fill="#003566"/>
<path d="M44.3337 29.0574C43.8907 29.3466 43.6119 29.8292 43.5828 30.3572V42.4536C43.6119 42.9816 43.8907 43.4642 44.3337 43.7534L54.8173 49.8016C55.2896 50.0398 55.847 50.0398 56.3192 49.8016L66.8028 43.7534C67.2459 43.4642 67.5247 42.9816 67.5538 42.4536V30.3572C67.5247 29.8292 67.2459 29.3466 66.8028 29.0574L56.3258 23.0092C55.8535 22.771 55.2962 22.771 54.8239 23.0092L44.3337 29.0574ZM4.75095 6.22683C4.30881 6.51539 4.03011 6.99657 4 7.52335V19.6198C4.02908 20.1477 4.30791 20.6304 4.75095 20.9196L15.2346 26.9645C15.7067 27.2032 16.2643 27.2032 16.7364 26.9645L27.22 20.9163C27.6631 20.6271 27.9419 20.1444 27.971 19.6165V7.52335C27.9409 6.99657 27.6622 6.51539 27.22 6.22683L16.7364 0.178613C16.2642 -0.0595376 15.7068 -0.0595376 15.2346 0.178613L4.75095 6.22683Z" fill="#003566"/>
<path d="M73.084 8.41711C74.3296 8.20733 75.7931 8.03211 77.4746 7.89143C79.1562 7.75076 80.9548 7.68042 82.8705 7.68042C85.0039 7.65061 87.1341 7.85296 89.2229 8.28384C90.8876 8.62431 92.4465 9.35271 93.7705 10.4088C95.8855 12.1561 96.943 14.6388 96.943 17.8571C96.9521 18.8841 96.7814 19.9049 96.4385 20.8741C96.1192 21.7707 95.6739 22.6181 95.1157 23.3915C94.5788 24.1336 93.9283 24.788 93.1876 25.3313C92.472 25.8591 91.6892 26.291 90.8596 26.6158V26.775C92.0781 27.2501 93.1085 28.1034 93.7966 29.2072C94.5965 30.5284 95.1768 31.9683 95.5155 33.4718C95.7647 34.459 96.0138 35.4536 96.2629 36.4556C96.512 37.4576 96.7499 38.4078 96.9766 39.3061C97.2058 40.1946 97.4262 40.988 97.638 41.6864C97.7889 42.2245 97.9839 42.7494 98.2209 43.2561H90.2767C89.8368 42.3265 89.501 41.352 89.2752 40.35C88.8891 38.9014 88.4681 37.1108 88.0122 34.9785C87.5912 32.7771 86.9858 31.2963 86.1961 30.5362C85.4065 29.7761 84.2767 29.3861 82.8069 29.3664H80.7966V43.2524H73.084V8.41711ZM80.7966 23.8135H83.3712C85.2271 23.8135 86.6632 23.331 87.6796 22.366C88.7112 21.3656 89.2654 19.9782 89.2042 18.5493C89.2042 15.2126 87.3994 13.5097 83.7897 13.4406C83.166 13.4334 82.5423 13.4594 81.9213 13.5184C81.544 13.5559 81.1695 13.6178 80.8003 13.7035L80.7966 23.8135ZM109.925 43.7785C108.247 43.7972 106.582 43.4944 105.019 42.8864C103.56 42.3124 102.244 41.4282 101.163 40.2952C100.038 39.0956 99.1723 37.6782 98.6191 36.1308C97.9826 34.3497 97.6711 32.4691 97.6995 30.5782C97.6666 28.6414 97.987 26.7147 98.6451 24.8924C99.22 23.3205 100.114 21.8839 101.27 20.6725C102.392 19.5128 103.75 18.6066 105.253 18.0147C106.858 17.391 108.569 17.0794 110.292 17.0967C111.983 17.0725 113.661 17.3937 115.223 18.0406C116.662 18.6476 117.951 19.5595 119.002 20.7132C120.086 21.9245 120.915 23.3406 121.441 24.8776C122.035 26.6055 122.327 28.4222 122.305 30.2488C122.36 32.3803 121.981 34.5007 121.193 36.4824C120.547 38.065 119.573 39.493 118.334 40.6727C117.198 41.7343 115.846 42.5386 114.37 43.0307C112.951 43.5138 111.462 43.7638 109.962 43.7711L109.925 43.7785ZM110.136 38.2259C110.803 38.2329 111.455 38.0209 111.99 37.6226C112.569 37.1765 113.036 36.6025 113.354 35.9457C113.747 35.1586 114.03 34.3217 114.196 33.4581C114.394 32.4573 114.491 31.4392 114.485 30.4191C114.485 29.48 114.406 28.5426 114.248 27.6169C114.11 26.7567 113.855 25.9197 113.488 25.1293C113.172 24.4414 112.706 23.8329 112.123 23.3488C111.543 22.8879 110.818 22.6467 110.077 22.6677C109.303 22.647 108.546 22.8869 107.926 23.3488C107.325 23.8211 106.845 24.4304 106.528 25.1256C106.161 25.9159 105.905 26.753 105.768 27.6132C105.61 28.5389 105.531 29.4763 105.531 30.4154C105.523 31.4527 105.62 32.4883 105.82 33.5063C105.982 34.3657 106.273 35.1956 106.684 35.9679C107.026 36.6176 107.51 37.182 108.1 37.6188C108.684 38.0275 109.383 38.2389 110.095 38.2222L110.136 38.2259ZM147.243 35.1055C147.243 36.712 147.26 38.1927 147.294 39.5475C147.328 40.9024 147.379 42.1363 147.447 43.2492H140.923L140.558 39.8955H140.405C140.095 40.3589 139.749 40.797 139.372 41.2059C138.927 41.6872 138.425 42.11 137.876 42.4645C137.234 42.8752 136.539 43.1929 135.811 43.4084C134.938 43.6651 134.033 43.7898 133.125 43.7786C130.612 43.7786 128.615 42.905 127.133 41.1578C125.652 39.4106 124.917 36.6232 124.929 32.7956L124.929 17.6186H132.472V31.6481C132.472 33.5014 132.747 34.9426 133.296 35.9717C133.811 36.9809 134.864 37.5864 135.982 37.5153C136.795 37.5584 137.593 37.2767 138.204 36.7305C138.715 36.2647 139.121 35.6927 139.394 35.0537C139.626 34.4662 139.732 33.8351 139.704 33.2028V17.6186H147.243V35.1055ZM160.656 11.34V18.0974H166.3V23.5645H160.656V33.4053C160.656 34.9531 160.898 36.0466 161.381 36.6856C161.865 37.3246 162.645 37.643 163.721 37.6405C164.124 37.6454 164.528 37.6284 164.929 37.5895C165.233 37.5555 165.582 37.5045 165.977 37.4364L166.03 43.1623C165.356 43.3708 164.663 43.5172 163.96 43.5997C162.99 43.725 162.011 43.7847 161.032 43.7783C159.878 43.7947 158.73 43.6107 157.644 43.2352C156.72 42.9246 155.877 42.4275 155.171 41.7773C154.372 40.9787 153.79 40.0036 153.477 38.9381C153.059 37.4588 152.869 35.9288 152.911 34.3967V23.5645H149.542V18.0974H152.93V13.454L160.656 11.34ZM171.977 14.9865C170.866 15.0326 169.785 14.63 168.995 13.8756C168.245 13.1356 167.84 12.1328 167.874 11.0985C167.835 10.0425 168.252 9.01821 169.026 8.26962C169.849 7.50866 170.96 7.10703 172.099 7.15879C173.21 7.11315 174.291 7.51568 175.081 8.26962C175.838 9.03532 176.257 10.0552 176.248 11.1134C176.28 12.153 175.863 13.1588 175.096 13.8904C174.273 14.651 173.162 15.0526 172.023 15.0013L171.977 14.9865ZM168.093 18.1486H176.087V43.7793H168.093V18.1486ZM225.858 43.2404C225.019 43.5932 224.14 43.8431 223.24 43.9844C222.005 44.2032 220.753 44.309 219.499 44.3006C217.684 44.3293 215.88 44.0267 214.175 43.4078C212.655 42.844 211.274 41.9638 210.124 40.8262C208.969 39.6665 208.083 38.2699 207.527 36.7342C206.902 34.9766 206.597 33.1224 206.626 31.2584C206.609 29.427 206.923 27.6075 207.554 25.8868C208.752 22.5811 211.328 19.9514 214.62 18.6738C216.509 17.943 218.523 17.5854 220.55 17.621C221.543 17.6188 222.535 17.7072 223.513 17.8851C224.362 18.0324 225.195 18.2616 226 18.5696L224.852 24.2872C224.336 24.0847 223.805 23.9267 223.262 23.8148C222.495 23.6616 221.714 23.5905 220.931 23.6027C218.919 23.6027 217.339 24.2872 216.192 25.6562C215.044 27.0251 214.471 28.7809 214.471 30.9236C214.471 33.2746 215.094 35.0826 216.341 36.3473C217.557 37.6044 219.249 38.2933 221.002 38.2445C222.382 38.2826 223.754 38.0291 225.028 37.5005L225.858 43.2404ZM189.315 17.1191C189.279 15.8562 189.696 14.6224 190.489 13.6443C191.271 12.6968 192.673 12.2231 194.696 12.2231C195.254 12.2222 195.812 12.2532 196.367 12.3161V6.20354C195.744 6.14402 195.116 6.11053 194.485 6.11053C192.615 6.07714 190.752 6.36267 188.976 6.95506C187.514 7.44514 186.165 8.22426 185.005 9.24681C183.961 10.1876 183.132 11.3468 182.577 12.6435C182.013 13.974 181.728 15.4079 181.74 16.855V18.0306H178.345V23.6112H181.74V43.7793H189.367V23.6112H196.378V43.7793H204.006V18.0306H189.315V17.1191Z" fill="#003566"/>
</g>
<defs>
<filter id="filter0_d_86_1220" x="0" y="0" width="230" height="58" filterUnits="userSpaceOnUse" color-interpolation-filters="sRGB">
<feFlood flood-opacity="0" result="BackgroundImageFix"/>
<feColorMatrix in="SourceAlpha" type="matrix" values="0 0 0 0 0 0 0 0 0 0 0 0 0 0 0 0 0 0 127 0" result="hardAlpha"/>
<feOffset dy="4"/>
<feGaussianBlur stdDeviation="2"/>
<feComposite in2="hardAlpha" operator="out"/>
<feColorMatrix type="matrix" values="0 0 0 0 0 0 0 0 0 0 0 0 0 0 0 0 0 0 0.25 0"/>
<feBlend mode="normal" in2="BackgroundImageFix" result="effect1_dropShadow_86_1220"/>
<feBlend mode="normal" in="SourceGraphic" in2="effect1_dropShadow_86_1220" result="shape"/>
</filter>
</defs>
</svg>
