<svg width="233" height="50" viewBox="0 0 233 50" fill="none" xmlns="http://www.w3.org/2000/svg">
<path d="M51.6693 0.000500708C50.7881 0.00282627 49.6415 0.269336 48.1335 0.789332C41.7691 2.98304 36.089 6.6551 30.8968 11.9292L27.2783 16.1915L28.6733 18.1843C31.0643 21.5529 33.5658 27.2607 34.7367 32.0642C35.4552 34.8216 35.7372 36.526 35.8551 39.3711C35.8751 39.8493 35.8989 40.3537 35.9105 40.9072C35.9233 41.4562 35.9329 42.0483 35.9385 42.6923C35.9644 46.102 36.0061 49.9992 35.6484 49.9992H52.7057L53.6726 49.0164C54.2743 48.1559 54.3635 45.1171 54.3635 24.8122C54.3635 3.8214 54.2924 1.50654 53.6319 0.774681C53.1659 0.260731 52.551 -0.0015923 51.6693 0.000500708V0.000500708Z" fill="#FF741B"/>
<path d="M2.80393 0.000634363C1.94789 -0.0137841 1.32508 0.217609 0.800824 0.692489C0.0375131 1.38458 0 2.71712 0 24.73C0 45.1042 0.0887732 48.1561 0.690847 49.017L1.38169 49.9995H18.3423C31.436 49.9995 35.3828 49.8733 35.6479 49.4461C35.8367 49.1419 35.9644 46.1026 35.9378 42.6926C35.8982 37.5399 35.6955 35.7455 34.7362 32.0648C32.6371 24.0114 28.6829 16.7514 22.989 11.3403C18.0368 6.63384 12.3372 2.89503 6.22927 0.789233C4.75322 0.28133 3.65928 0.015518 2.8037 0.00109948L2.80393 0.000634363Z" fill="#FF741B"/>
<path d="M27.2786 16.1904L26.2007 17.4925C24.2864 19.8302 20.7939 27.581 19.6264 32.0784C18.6718 35.7552 18.4723 37.5458 18.4388 42.7202C18.4162 46.1404 18.3556 49.9997 18.7009 49.9997H35.6477C36.0051 49.9997 35.9641 46.1027 35.9376 42.6928C35.898 37.54 35.6365 35.7607 34.736 32.065C33.5652 27.261 31.0693 21.5571 28.6782 18.1886L27.2786 16.1904V16.1904Z" fill="#FF741B"/>
<path d="M204.991 7.94435C202.607 7.9483 200.283 8.78155 198.623 10.2413C196.647 11.9799 195.923 13.4115 195.543 16.275L195.24 18.5582H191.814V24.3151H195.35V32.8814C195.35 37.5899 195.478 41.5755 195.64 41.738C195.802 41.9006 197.393 42.0287 199.176 42.0287H202.422V24.3149H207.725V18.5582H202.422V17.0915C202.422 14.935 204.055 13.5373 206.261 13.7978C207.189 13.9071 208.262 14.1366 208.651 14.3096C209.174 14.5427 209.713 14.0687 210.736 12.4966L212.131 10.3653L211.137 9.61782C209.975 8.73434 207.05 7.94086 204.991 7.94435H204.991ZM184.232 7.98551C180.777 8.16528 179.053 13.3801 182.465 15.2371C184.187 16.175 185.389 16.0371 186.912 14.7524C188.003 13.8317 188.279 13.2645 188.279 11.8741C188.279 9.91945 187.23 8.58248 185.351 8.10993C184.96 8.01225 184.59 7.96737 184.232 7.98551ZM103.863 8.78853L100.272 8.91271L96.6947 9.03736L92.7311 16.344C90.5517 20.3626 88.6261 23.7905 88.4633 23.9556C88.3002 24.1203 86.2836 20.784 83.9743 16.538L79.7756 8.8162L76.2398 8.9269L72.704 9.03759L72.1931 20.3301C71.9146 26.5407 71.5593 33.9641 71.406 36.8257L71.1299 42.029H78.0908L78.3806 36.3827C78.5391 33.2772 78.6963 29.0428 78.7259 26.9726C78.8289 19.8231 78.8688 19.827 82.8556 26.9172L86.3777 33.1723H90.0929L93.5599 26.6405L97.013 20.1087L97.3443 27.8581C97.5261 32.1204 97.7952 37.0529 97.9385 38.8185L98.1871 42.0294H105.19L105.176 39.926C105.171 38.7692 104.881 31.9439 104.527 24.7586C104.173 17.5738 103.883 11.0439 103.877 10.2422L103.863 8.78829V8.78853ZM156.015 8.81643V25.1317C156.015 34.1027 156.143 41.5757 156.305 41.738C156.467 41.9006 161.34 42.0287 167.133 42.0287H177.671V35.8288H163.528V8.81574H156.015V8.81643ZM137.453 12.3311V18.5171L135.574 18.6415L133.696 18.7801V24.0942L135.574 24.2328L137.453 24.3714L137.466 30.2114C137.492 37.9615 138.261 40.1322 141.568 41.7664C143.856 42.8969 148.539 42.6994 151.167 41.3648L153.35 40.2578L152.024 38.0988L150.698 35.9399L148.778 36.646C146.995 37.2885 146.757 37.2804 145.684 36.5769C144.531 35.819 144.524 35.7867 144.524 30.0723V24.3156H150.27V18.5587H144.565L144.427 15.5696L144.302 12.5804L140.877 12.4559L137.452 12.3311H137.453ZM120.188 18.0187C115.38 18.0489 111.584 20.4768 109.65 24.7582C108.32 27.7028 108.375 33.0802 109.774 36.0918C110.957 38.6374 113.376 40.8315 116.003 41.7662C119.937 43.1652 126.88 42.3797 130.036 40.1743L131.238 39.3441L129.898 37.1716L128.572 35.0127L126.28 36.0781C123.837 37.2176 120.686 37.4913 118.683 36.7288C117.193 36.1609 115.355 34.1665 115.355 33.1169C115.355 32.3467 115.864 32.2867 123.531 32.2867H131.708V30.1553C131.707 22.9017 127.026 17.9759 120.188 18.0189V18.0187ZM120.243 23.4019C121.606 23.3798 122.884 23.8333 123.779 24.7305C124.49 25.4426 125.077 26.4388 125.077 26.9447C125.077 27.8202 124.843 27.8581 120.216 27.8581C117.116 27.8581 115.354 27.6979 115.354 27.4016C115.354 26.3556 116.686 24.4651 117.771 23.9698C118.576 23.6021 119.426 23.4152 120.243 23.4019H120.243ZM221.551 18.0464C214.659 18.0464 210.088 22.2866 209.604 29.1451C209.203 34.8267 211.272 38.8632 215.75 41.1292C218.427 42.4838 218.751 42.5385 222.766 42.3885C226.286 42.2571 227.396 42.025 229.506 40.9908C230.896 40.3094 232.034 39.6053 232.034 39.4273C232.034 39.2494 231.443 38.1732 230.722 37.0334L229.41 34.9579L227.835 35.8988C225.73 37.143 221.185 37.5243 219.41 36.6043C217.838 35.7899 216.778 34.6213 216.371 33.283L216.068 32.2867H233L232.696 29.9611C231.657 21.8363 228.113 18.0466 221.551 18.0466L221.551 18.0464ZM221.206 23.43C222.751 23.43 223.463 23.6947 224.479 24.6477C225.193 25.3177 225.911 26.3137 226.067 26.8616C226.352 27.8542 226.329 27.8581 221.206 27.8581C216.083 27.8581 216.06 27.8542 216.344 26.8619C216.501 26.314 217.218 25.3177 217.932 24.6477C218.948 23.6947 219.661 23.4298 221.206 23.4298V23.43ZM187.837 18.5308L184.412 18.6552L180.986 18.7796L180.862 29.8504C180.797 35.9351 180.841 41.1659 180.959 41.475C181.106 41.8599 182.228 42.0285 184.509 42.0285H187.837V18.5308Z" fill="#FF741B"/>
</svg>
