<svg width="263" height="50" viewBox="0 0 263 50" fill="none" xmlns="http://www.w3.org/2000/svg">
<path d="M160.655 9.46341V42.2996H169.917V9.46341H160.655ZM87.8564 9.40918V42.2725H97.2V16.7573L104.485 16.7845C106.868 16.7845 108.548 17.381 109.685 18.6012C111.148 20.1467 111.743 22.6955 111.743 27.2779V42.2725H120.789V24.1326C120.789 11.1716 112.529 9.40918 104.485 9.40918C104.485 9.40918 87.8564 9.40918 87.8564 9.40918ZM175.577 9.46341V42.2996H190.581C198.57 42.2996 201.197 40.971 204.014 37.9884C206.018 35.9005 207.291 31.291 207.291 26.2476C207.291 21.638 206.208 17.5166 204.285 14.9406C200.9 10.3582 195.943 9.46341 188.55 9.46341H175.577ZM184.758 16.5946H188.739C194.508 16.5946 198.245 19.1706 198.245 25.9222C198.245 32.6467 194.535 35.2497 188.739 35.2497H184.758V16.5946ZM147.33 9.46341L139.611 35.4667L132.218 9.46341H122.224L132.787 42.2996H146.111L156.755 9.46341H147.33ZM211.624 42.2725H220.887V9.46341H211.624V42.2725ZM237.57 9.46341L224.651 42.2725H233.778L235.836 36.497H251.138L253.088 42.2725H263L249.946 9.46341H237.57ZM243.582 15.4558L249.188 30.8029H237.786L243.582 15.4558Z" fill="#FF741B"/>
<path d="M28.1389 14.9132V10.4122C28.5722 10.385 29.0326 10.3579 29.466 10.3579C41.8157 9.97831 49.8863 20.9599 49.8863 20.9599C49.8863 20.9599 41.1657 33.1074 31.7951 33.1074C30.4409 33.1074 29.2493 32.8905 28.166 32.5108V18.8178C32.9596 19.4143 33.9346 21.5293 36.8324 26.3286L43.251 20.9056C43.251 20.9056 38.5657 14.7505 30.6576 14.7505C29.7909 14.7777 28.9514 14.8319 28.1389 14.9132ZM28.1389 0V6.72452C28.5722 6.6974 29.0326 6.67028 29.466 6.64317C46.6093 6.04664 57.7944 20.7158 57.7944 20.7158C57.7944 20.7158 44.9572 36.3612 31.6055 36.3612C30.3868 36.3612 29.2493 36.2527 28.166 36.0629V40.2386C29.0868 40.3471 30.0618 40.4284 31.0367 40.4284C43.4948 40.4284 52.4862 34.0564 61.2069 26.5456C62.6422 27.7115 68.5733 30.5315 69.7921 31.7516C61.5048 38.6931 42.1948 44.3059 31.2534 44.3059C30.1972 44.3059 29.1951 44.2516 28.1931 44.1432V50H75.5065V0H28.1389ZM28.1389 32.538V36.09C16.6288 34.0293 13.433 22.0445 13.433 22.0445C13.433 22.0445 18.9579 15.9165 28.1389 14.9132V18.8178C28.1389 18.8178 28.1389 18.8178 28.1118 18.8178C23.3182 18.2213 19.5266 22.7495 19.5266 22.7495C19.5266 22.7495 21.6661 30.3145 28.1389 32.538ZM7.69148 21.5293C7.69148 21.5293 14.5163 11.4696 28.1389 10.4122V6.75163C13.0539 7.97181 0 20.7701 0 20.7701C0 20.7701 7.39357 42.1909 28.1389 44.1703V40.2657C12.9184 38.3406 7.69148 21.5293 7.69148 21.5293Z" fill="#FF741B"/>
</svg>
